<svg width="255" height="84" viewBox="0 0 255 84" fill="none" xmlns="http://www.w3.org/2000/svg">
<path d="M147.395 15.5043C118.844 15.1236 90.4473 15.1012 61.8804 15.9768C56.774 16.1333 41.6123 15.5106 46.5727 16.7327C51.3899 17.9195 56.4218 18.5005 61.3134 19.284C90.7548 23.9997 120.286 28.2607 150.136 28.2607C153.242 28.2607 161.98 27.5771 159.396 29.3001C157.619 30.4844 154.047 30.7405 152.12 31.0009C141.162 32.4817 129.989 32.5128 118.953 32.5128C114.987 32.5128 107.051 33.5761 103.173 31.1899C102.326 30.6687 105.111 30.7049 106.102 30.623C137.424 28.0344 231.786 28.2607 200.358 28.2607C187.093 28.2607 173.838 29.1111 160.577 29.1111C159.411 29.1111 162.917 29.0138 164.073 29.1583C168.167 29.6701 156.166 31.5657 152.12 32.3711C136.773 35.4256 121.293 37.6673 105.866 40.2611C99.8969 41.2648 103.552 41.0699 105.394 40.9226C130.955 38.8777 155.43 38.3688 181.034 40.6391C183.518 40.8593 188.576 40.9778 182.357 41.206C161.899 41.9568 141.406 41.8439 120.938 41.8675C105.473 41.8853 90.0073 41.8675 74.5422 41.8675C69.7862 41.8675 84.0545 41.8331 88.8105 41.8675C107.9 42.0055 127.098 42.1768 146.072 44.5132C147.513 44.6907 151.751 45.1865 150.325 45.4582C146.423 46.2013 142.39 45.8624 138.419 45.9306C120.846 46.2323 103.266 46.1196 85.6922 46.1196C81.8967 46.1196 71.0106 47.9082 74.306 46.0251C76.0768 45.0132 88.6688 43.5683 82.2433 43.5683C63.7088 43.5683 8.31987 43.9153 26.6822 41.395C42.6811 39.1991 58.7117 40.1624 74.7312 38.891C92.3161 37.4954 111.107 37.6289 128.497 40.2139C140.109 41.9399 151.795 42.9078 163.364 44.7967C171.404 46.1093 179.408 46.8357 187.554 46.97C190.205 47.0137 194.206 46.6089 188.972 47.7259C167.251 52.3615 100.72 57.8937 122.827 55.7577C134.262 54.6529 125.867 55.4371 137.474 54.3404C139.521 54.147 142.162 55.2272 143.616 53.7734C145.022 52.3675 139.648 54.0465 137.663 54.1514C128.7 54.6246 122.033 54.8858 112.717 55.0963C94.2274 55.5141 75.7414 55.3845 57.2503 55.4743C56.5231 55.4778 54.3532 55.5935 55.077 55.6632C61.7129 56.3029 68.5096 56.2191 75.1564 56.2774C128.881 56.7487 92.5993 57.9171 113.898 55.7105C131.891 53.8464 149.92 52.2327 167.994 51.4111C170.764 51.2852 178.042 49.4821 176.31 51.6474C175.663 52.4552 173.047 53.1798 172.058 53.7734" stroke="black" stroke-width="3" stroke-linecap="round"/>
<path d="M156.75 32.5128C176.869 32.5128 197.329 30.812 217.225 30.812C219.508 30.812 229.425 29.5485 223.083 31.6624" stroke="#121212" stroke-width="3" stroke-linecap="round"/>
<path d="M151.647 45.2692C170.347 44.7025 188.968 43.7717 207.681 43.5683C210.965 43.5326 214.217 42.7179 217.461 42.7179C219.575 42.7179 213.25 43.1538 211.177 43.5683" stroke="#121212" stroke-width="3" stroke-linecap="round"/>
<path d="M121.882 40.1666C102.591 42.3926 83.2575 44.9325 64.0536 47.159C57.6823 47.8977 48.164 46.791 42.793 50.3717" stroke="#121212" stroke-width="3" stroke-linecap="round"/>
<path d="M88.7157 33.3632C72.5692 33.3632 57.9141 27.4103 41.9424 27.4103" stroke="#121212" stroke-width="3" stroke-linecap="round"/>
<path d="M118.481 14.6538C119.507 14.6538 127.571 13.6056 127.269 13.0002C126.522 11.5068 119.448 11.2521 117.63 11.2521C115.792 11.2521 111.508 11.4789 116.166 11.2049C120.037 10.9772 124.873 11.1099 128.686 10.2127C131.198 9.62168 143.894 7 136.151 7C132.312 7 128.927 7.34196 125.237 7.80318C122.315 8.16844 119.734 9.55127 116.78 9.55127" stroke="black" stroke-width="3" stroke-linecap="round"/>
<path d="M13.5766 37.799C-24.0343 37.799 88.679 33.2843 126.116 29.6727C139.205 28.41 152.467 25.7345 165.614 25.0426C167.416 24.9477 169.311 25.0115 171.094 25.2316C181.748 26.5469 191.01 31.113 200.717 35.2005C202.494 35.9487 215.344 37.799 210.875 37.799" stroke="#0A0A0A" stroke-width="3" stroke-linecap="round"/>
<path d="M26.0518 50.5487C36.3701 53.9882 47.7206 56.6016 58.633 56.6016C69.4186 56.6016 80.2047 56.639 90.9901 56.6016C94.5457 56.5893 97.8943 56.1226 101.377 55.9291C101.963 55.8966 97.7263 56.1775 97.0057 56.2654C91.4811 56.9391 85.8631 57.1329 80.304 57.2368C77.0045 57.2985 71.2916 58.378 68.1234 56.9379C67.5474 56.6761 65.6225 56.6016 66.2552 56.6016C72.7226 56.6016 79.1608 56.7396 85.6097 57.2742C88.3 57.4972 96.3733 57.7589 93.6803 57.9467C84.1317 58.6129 74.8516 59.9644 65.2091 59.9644C63.9635 59.9644 60.2299 59.9189 61.4727 60.0018C71.0635 60.6411 80.6334 60.6369 90.2428 60.6369C96.4203 60.6369 102.598 60.6369 108.775 60.6369C115.219 60.6369 110.52 61.2114 117.257 61.7952C138.657 63.6499 160.078 65.3618 181.448 67.5492C183.915 67.8018 186.47 68.3003 188.958 67.8855C193.104 67.1946 194.914 63.5768 198.859 62.393C199.834 62.1007 203.837 62.0087 203.38 61.9073C201.287 61.4421 199.313 60.2265 197.178 60.0018C192.882 59.5496 188.331 59.9644 184.026 59.9644C176.329 59.9644 168.632 59.9644 160.935 59.9644C158.668 59.9644 154.04 59.2179 151.818 60.4875C149.776 61.6545 156.494 61.0426 158.843 61.16C166.391 61.5375 174.086 61.5157 181.635 61.16C188.554 60.834 209.2 58.4137 202.334 59.3292C195.984 60.176 189.483 59.9644 183.092 59.9644C174.461 59.9644 200.263 58.1943 208.836 57.1995C213.892 56.6127 218.837 56.4748 223.781 55.2565C225.471 54.8401 226.985 54.584 228.713 54.584C234.857 54.584 216.735 57.9467 210.592 57.9467C206.17 57.9467 219.434 57.9467 223.856 57.9467C224.344 57.9467 232.08 57.817 227.667 57.9467C203.959 58.644 180.22 61.2568 156.489 61.9447C154.596 61.9995 152.703 61.982 150.81 61.982C147.43 61.982 157.56 62.3374 160.935 62.5051C166.354 62.7744 171.753 62.6637 177.151 62.1315C177.646 62.0827 179.269 62.0048 177.114 62.3557C172.837 63.0519 168.384 63.0802 164.074 63.1777C152.296 63.444 140.508 63.3271 128.728 63.3271C125.054 63.3271 120.361 62.5292 116.846 63.7008C116.372 63.8586 125.299 65.2666 126.934 65.3074C130.021 65.3846 133.113 65.3448 136.2 65.3448C137.812 65.3448 141.347 64.7049 142.926 65.4942C145.469 66.7657 137.382 66.8259 134.556 67.1382C120.948 68.6423 107.065 70.7252 93.344 70.7252C86.9673 70.7252 106.098 70.7252 112.474 70.7252C115.63 70.7252 119.323 71.2565 122.45 70.6878C126.059 70.0317 115.133 70.0526 111.465 70.0526C108.177 70.0526 104.889 70.0526 101.601 70.0526C98.0255 70.0526 101.257 70.0565 101.452 70.0526C111.579 69.8521 121.721 68.6871 131.829 68.035C132.344 68.0017 137.012 67.3624 136.163 67.3624C133.759 67.3624 131.355 67.3624 128.952 67.3624" stroke="#0F0F0F" stroke-width="3" stroke-linecap="round"/>
<path d="M123.572 70.0526C129.138 70.0526 134.822 69.9629 140.348 70.7251C142.904 71.0776 140.011 72.5271 139.04 72.7428C135.256 73.5838 124.029 76.1055 127.906 76.1055C129.674 76.1055 131.443 76.1055 133.212 76.1055C139.157 76.1055 121.333 76.6929 115.389 76.8154C115.116 76.8211 104.686 77.8742 107.431 78.6462C108.685 78.9991 110.168 78.7957 111.466 78.7957" stroke="#0F0F0F" stroke-width="3" stroke-linecap="round"/>
<path d="M69.767 70.0526C65.7017 69.3517 61.6981 68.2826 57.6611 67.4372C54.158 66.7035 52.4416 66.9286 56.4655 66.3162C63.0542 65.3136 67.8266 63.7775 73.5034 60.2633C75.0815 59.2863 77.0209 58.5033 74.0264 57.7973C67.8958 56.3518 61.4311 55.2579 55.1577 54.6961C52.4036 54.4494 44.0978 54.584 46.8629 54.584C48.7704 54.584 50.6249 54.9801 52.5049 55.2565C54.8722 55.6047 55.8018 55.727 58.2215 55.8544C60.0514 55.9507 64.5915 54.4699 63.714 56.0785C62.5397 58.2315 47.295 58.0803 45.7794 58.1709C38.5095 58.6057 31.2373 58.6193 23.9589 58.6193C19.3647 58.6193 33.0552 59.962 37.6341 60.338C44.6278 60.9124 52.792 61.6861 59.6787 59.9644" stroke="#111111" stroke-width="3" stroke-linecap="round"/>
<path d="M110.121 20.9566C115.263 20.9566 120.325 20.2841 125.44 20.2841C130.609 20.2841 120.203 20.2841 119.387 20.2841C112.313 20.2841 105.238 20.2841 98.1642 20.2841C93.1618 20.2841 88.1717 20.1155 83.2186 20.9566C79.3929 21.6063 75.7105 22.8507 71.8974 23.5721C69.9606 23.9385 64.0601 24.3194 66.0313 24.3194C96.4726 24.3194 126.915 24.366 157.348 25.1414C171.526 25.5026 185.98 26.9872 200.167 25.9634C202.855 25.7694 205.828 25.6459 208.313 24.4688C210.002 23.6688 204.577 24.3194 202.708 24.3194C167.691 24.3194 132.644 24.2054 97.6411 25.2908C96.1124 25.3382 77.4728 24.4509 73.5788 27.0469C73.5611 27.0587 77.5231 27.8004 77.8382 27.8316C86.7932 28.7172 97.0608 26.7257 105.562 30.0734C108.559 31.2533 113.808 33.7764 114.754 37.322C115.225 39.09 110.614 39.1706 109.971 39.2649C98.0366 41.0145 85.9979 41.8163 74.1392 44.1222C70.5552 44.8191 60.204 46.4819 63.7147 47.4849C70.443 49.4073 77.7434 50.2441 84.6758 51.0719C88.707 51.5532 85.6235 51.3251 83.1439 51.5202C75.3216 52.1359 67.4507 52.4579 59.6421 53.2016C55.5876 53.5877 67.7897 53.233 71.86 53.0895C88.2632 52.5114 104.66 52.6747 121.031 51.3708C122.481 51.2552 122.097 51.2817 123.123 51.2213C123.384 51.206 122.6 51.2213 122.339 51.2213C120.657 51.2213 115.62 51.3713 117.294 51.2213C124.273 50.5964 193.218 46.3473 193.218 45.8409C193.218 44.376 158.944 43.831 156.526 43.8233C153.288 43.8129 150.05 43.8233 146.812 43.8233C145.566 43.8233 141.919 43.3981 143.075 43.8606C148.088 45.8658 155.348 45.5729 160.636 46.2146C161.053 46.2651 172.881 46.4836 167.026 47.9707C158.821 50.0544 150.614 52.1491 142.403 54.2104C141.693 54.3886 129.685 56.4693 136.574 58.6194C144.323 61.0377 153.384 60.8396 161.421 60.5996C162.914 60.5551 164.367 60.2574 165.793 59.815C167.629 59.245 169.576 58.928 171.323 58.0963C176.71 55.5308 182.269 53.5195 187.613 50.8477C190.501 49.4039 193.345 49.2952 196.468 48.83C196.838 48.7749 201.378 47.9454 198.598 47.8586C193.655 47.7041 188.671 47.2798 183.727 47.5597C179.081 47.8226 185.009 47.6301 186.119 47.5597C195.839 46.9425 205.558 46.5135 215.3 46.5135C215.95 46.5135 217.731 46.937 217.131 47.186C210.586 49.8995 200.709 49.2877 193.965 49.8762C183.451 50.7938 172.478 50.6506 162.056 52.417C157.066 53.2628 172.165 53.1819 177.226 53.0895C184.481 52.957 191.438 51.6883 198.598 51.2213C200.403 51.1036 207.642 50.1774 208.686 51.2213C208.883 51.4182 208.138 51.3173 207.864 51.3708C206.063 51.7233 204.328 52.0539 202.484 52.1928C191.906 52.989 181.243 53.2596 170.65 53.9115" stroke="#111111" stroke-width="3" stroke-linecap="round"/>
<path d="M113.483 78.1232C124.343 77.8517 135.112 77.4507 145.99 77.4507C150.079 77.4507 140.568 78.7213 139.75 78.7584C136.461 78.9079 133.135 78.5305 129.886 79.1321C125.597 79.9264 121.175 79.2137 116.846 79.4683C116.284 79.5014 120.711 80.1409 121.853 80.1409C127.286 80.1409 132.909 80.1409 138.368 80.1409" stroke="#1A1A1A" stroke-width="3" stroke-linecap="round"/>
<path d="M122.227 12.2135C127.415 15.9872 147.402 11.7168 141.394 13.9696C135.224 16.2835 128.605 18.0743 122.264 19.8357C118.078 20.9984 113.884 21.7864 109.598 22.4512C107.819 22.727 103.034 22.5925 101.452 23.6468C99.7112 24.8076 105.638 23.6436 107.729 23.5721C113.074 23.3894 118.399 22.9669 123.721 22.4512C127.724 22.0634 131.949 20.9566 135.976 20.9566C147.66 20.9566 112.633 22.8924 101.191 25.2535C95.7511 26.3759 103.918 27.8451 105.002 27.9437C117.843 29.111 129.916 29.966 142.403 33.5856C146.414 34.7482 149.82 35.7527 153.986 35.7527C154.41 35.7527 159.833 35.4704 158.993 36.8363C158.109 38.2727 154.08 39.3595 153.014 39.7133C145.735 42.1305 138.216 43.9296 130.671 45.2805C122.049 46.8242 112.704 48.2727 103.918 48.5311C101.478 48.6029 94.5501 48.3661 96.6697 49.5773C98.2029 50.4534 102.235 49.8517 103.694 49.7641C108.011 49.5051 112.252 48.7513 116.547 48.307C122.37 47.7046 128.331 47.696 134.183 47.8586C142.265 48.0831 118.41 51.4816 110.42 52.7159C107.55 53.1592 104.987 53.4361 109.448 54.3599C115.148 55.5401 120.979 56.1487 126.785 56.4523C136.865 56.9793 145.353 57.2592 155.256 59.815C156.347 60.0966 166.63 62.5693 165.643 62.8041C158.645 64.4704 151.665 64.6723 144.495 64.6723C129.078 64.6723 114.001 66.0174 98.6126 66.0174C94.6335 66.0174 90.9128 66.3515 86.9551 66.8394C78.8233 67.842 71.2795 65.9254 63.4906 63.5888C60.9839 62.8368 50.1264 61.9853 48.844 58.993C48.1709 57.4226 52.2219 58.451 53.9255 58.3205C59.42 57.8996 64.9158 57.4869 70.4029 56.9754C72.4557 56.784 84.5311 56.5261 76.3438 54.6588C62.2608 51.4469 47.9197 49.2406 33.749 46.4388C31.6594 46.0256 29.3342 45.7248 27.2477 45.1684C26.0714 44.8547 27.8339 44.5443 27.995 44.5332C34.1435 44.1092 40.3663 44.0976 46.5274 43.8607C56.1104 43.4921 27.3473 43.8233 17.7573 43.8233C13.8216 43.8233 2.01466 43.8233 5.95031 43.8233C12.1785 43.8233 18.3726 43.3399 24.5949 43.1881C28.5171 43.0925 32.4143 43.2202 36.2897 42.5156C36.9848 42.3892 34.8977 42.272 34.1974 42.1793C28.5932 41.4376 22.9754 40.7682 17.3836 39.9375C9.20979 38.7231 13.5751 39.0133 19.2892 39.2276C54.4059 40.5444 89.4713 41.2526 124.618 41.0957C140.263 41.0259 156.252 39.5275 171.846 41.432C177.385 42.1086 182.764 43.3775 188.361 43.0013C196.952 42.4237 205.536 42.521 214.142 42.4782C219.067 42.4537 223.945 41.8615 228.863 41.8057C229.526 41.7981 233.226 41.1917 231.516 42.1419C230.241 42.8503 228.254 41.9446 226.883 41.843C224.835 41.6914 223.096 42.3443 221.241 43.1508C219.844 43.758 217.627 44.9238 216.906 46.364C216.813 46.5515 227.465 47.192 228.527 47.1487C229.979 47.0894 231.362 46.5135 232.786 46.5135C234.793 46.5135 228.797 47.0176 226.845 47.485C212.281 50.9734 197.907 55.0902 183.13 57.6479C173.946 59.2374 164.778 59.5748 155.555 60.5997C152.591 60.929 161.45 59.6355 164.336 58.8809C170.984 57.1422 177 55.5983 183.877 55.1072C190.265 54.6509 196.91 53.239 203.269 53.239C204.714 53.239 203.113 53.4325 202.521 53.6126C199.385 54.5673 196.85 56.7266 193.778 57.8721C185.067 61.1205 174.932 61.0146 165.793 61.2348C160.233 61.3688 154.399 61.7109 148.83 61.1601C143.549 60.6379 138.385 60.0048 133.062 59.9645C131.443 59.9522 129.824 59.9645 128.205 59.9645C125.822 59.9645 132.963 59.7074 135.341 59.5535C141.039 59.1846 146.723 58.6684 152.417 58.2457C154.443 58.0953 160.324 57.0755 158.507 57.9842C156.741 58.8672 147.699 59.0001 146.961 59.0677C132.499 60.394 118.041 61.7423 103.545 62.6547C89.9986 63.5072 76.4636 63.9998 62.8928 63.9998C59.9508 63.9998 62.8839 63.9998 63.7895 63.9998C70.9645 63.9998 78.143 64.0877 85.3111 63.7009C93.6048 63.2533 103.401 63.408 111.242 60.1513C119.516 56.7143 127.135 50.8962 136.275 50.0257C144.58 49.2347 153.026 50.4712 161.309 50.9224C170.145 51.4038 179.483 50.6057 188.174 48.8674C191.837 48.1348 196.509 47.7044 199.869 46.1772C203.137 44.6916 211.037 37.3392 209.508 33.212C208.763 31.1984 202.283 32.9897 201.139 33.1372C187.443 34.9045 173.867 36.542 160.039 36.9857C156.386 37.1029 152.711 37.1501 149.054 37.0978C148.895 37.0955 147.157 37.1497 147.559 36.4253C148.977 33.8724 155.659 33.5334 157.946 33.0625C163.129 31.9955 168.28 31.0493 173.527 30.3723C174.861 30.2002 176.327 29.9489 175.956 28.2799C174.729 22.7608 166.956 20.4851 162.43 19.2379C150.094 15.8383 137.118 16.2488 124.431 16.2488C114.604 16.2488 144.084 16.2488 153.911 16.2488C155.79 16.2488 165.18 16.2428 164.971 16.2488C161.442 16.3496 157.835 17.2036 154.359 17.7433C148.582 18.6404 142.942 18.8069 137.135 19.2753C133.883 19.5375 130.712 19.6115 136.051 19.6115C145.416 19.6115 154.784 19.6951 164.149 19.6115C169.124 19.5671 177.61 16.8129 182.121 19.35C182.743 19.6999 185.159 21.189 183.952 21.9655C182.787 22.7144 180.892 22.9306 179.617 23.1237C173.538 24.0448 167.373 24.2496 161.234 24.3194C159.725 24.3365 155.328 24.2345 159.74 24.3194C168.732 24.4923 176.282 27.6162 184.101 31.9042C191.518 35.9716 199.385 37.1048 207.715 38.5924C214.771 39.8523 198.329 43.9646 197.664 44.0848C196.472 44.3004 186.46 44.9556 191.499 46.0278C198.674 47.5544 205.068 51.8747 212.236 53.6874C217.595 55.0424 223.218 55.2566 228.713 55.2566C231.343 55.2566 232.892 53.9115 235.514 53.9115C236.942 53.9115 238.552 53.9115 236.149 53.9115C231.797 53.9115 227.468 53.3008 223.109 53.239C219.718 53.1909 216.385 52.9623 213.021 52.5664C210.065 52.2187 218.77 50.9273 221.726 50.5862C228.623 49.7904 235.4 48.6961 242.239 47.485C243.981 47.1766 253.137 48.7678 248.479 48.4938C240.439 48.0209 232.547 47.186 224.454 47.186" stroke="#1A1A1A" stroke-width="3" stroke-linecap="round"/>
<path d="M51.807 32.0554C48.9371 39.8089 46.4924 46.3586 46.3861 46.6064C46.2798 46.9604 46.9884 47.0312 49.6811 46.9604L53.1533 46.8542L55.3855 40.8356L57.6531 34.8169L57.4759 39.0654C57.3696 41.402 57.1925 44.1635 57.0507 45.1548L56.8736 47.0312H60.5938H64.314L69.6641 32.6927C72.6048 24.7976 75.0141 18.2833 75.0141 18.1771C75.0141 18.0709 73.526 18.0001 71.6836 18.0001H68.3531L67.4319 20.3722C66.9359 21.7175 65.873 24.4436 65.0935 26.497L63.6408 30.2144L63.8534 25.6119C63.9597 23.0629 64.1369 20.3368 64.2432 19.4871L64.4558 18.0001H60.771H57.0507L51.807 32.0554Z" fill="white"/>
<path d="M75.6868 18.956C72.6397 26.8865 65.4473 46.3232 65.4473 46.6418C65.4473 46.925 66.333 47.0313 68.7423 46.9604L72.002 46.8542L77.3874 32.5157C80.3636 24.6206 82.8083 18.1417 82.8083 18.0709C82.8083 18.0355 81.2848 18.0001 79.4424 18.0001C76.0765 18.0001 76.0411 18.0001 75.6868 18.956Z" fill="white"/>
<path d="M83.8715 18.1064C83.8715 18.1772 81.4977 24.6561 78.5569 32.5158C75.6516 40.3754 73.2423 46.8543 73.2423 46.9251C73.2423 46.9959 74.7658 46.9959 76.6791 46.9605L80.0804 46.8543L82.2417 41.0835L84.403 35.3127L84.6156 39.1363C84.7573 41.2251 84.8636 43.8804 84.899 44.9779L84.9344 46.9959L89.2216 47.1021L93.5087 47.2084L75.2973 52.1649C57.8653 56.909 56.9796 57.1214 53.7554 57.1214C50.9918 57.1214 50.0706 56.9798 48.6179 56.3071C42.6301 53.5811 41.142 47.2084 44.5434 38.9947L45.252 37.2953L44.3662 38.3574C39.2642 44.3407 34.6936 51.8463 32.8512 57.2985C31.7529 60.4848 31.7174 65.0519 32.7449 67.0699C35.1188 71.6016 41.3192 74.1861 47.6967 73.301C51.9838 72.6991 55.3852 71.4246 71.7542 64.4146C99.0359 52.7314 137.549 35.9853 137.903 35.6667C138.081 35.4543 138.01 35.3481 137.726 35.3481C137.443 35.3481 130.428 37.1891 122.208 39.4195C113.952 41.65 107.114 43.491 107.043 43.491C106.937 43.491 107.043 43.1723 107.256 42.8183C107.929 41.5083 107.681 41.4021 103.748 41.2959L99.8862 41.1897L101.162 37.7555L102.437 34.3214L105.768 34.2152L109.098 34.1089L109.949 31.8431C110.409 30.604 110.799 29.471 110.799 29.294C110.799 29.1524 109.382 28.94 107.681 28.9046L104.563 28.7984L105.591 25.8598L106.653 22.9567H110.126H113.598L114.271 21.0803C114.661 20.089 115.086 18.9561 115.228 18.6021C115.476 18.0356 114.838 18.0002 105.095 18.0002H94.6779L91.3474 22.0716C89.505 24.3375 87.9815 26.1077 87.9106 26.0369C87.8398 25.9661 88.4066 24.3375 89.1861 22.3903C89.9656 20.4785 90.6034 18.6729 90.6034 18.425C90.6034 18.1064 89.6822 18.0002 87.2374 18.0002C85.395 18.0002 83.8715 18.0356 83.8715 18.1064ZM96.5203 31.9847L91.7726 44.6239L91.56 40.6232C91.4183 38.3928 91.312 35.0648 91.312 33.2238V29.8605L96.2014 24.5145C98.8587 21.576 101.091 19.1685 101.162 19.2393C101.197 19.2747 99.1067 25.0102 96.5203 31.9847Z" fill="white"/>
<path d="M157.203 61.2969C154.222 61.2969 152.07 60.5547 150.746 59.0703C149.435 57.5859 148.779 55.2233 148.779 51.9824V48.791H155.236V52.873C155.236 53.6276 155.348 54.2214 155.57 54.6543C155.805 55.0749 156.207 55.2852 156.776 55.2852C157.37 55.2852 157.778 55.112 158.001 54.7656C158.236 54.4193 158.354 53.8503 158.354 53.0586C158.354 52.0566 158.255 51.2217 158.057 50.5537C157.859 49.8734 157.512 49.2301 157.018 48.624C156.535 48.0055 155.861 47.2881 154.995 46.4717L152.063 43.6885C149.874 41.6227 148.779 39.2601 148.779 36.6006C148.779 33.8174 149.423 31.696 150.709 30.2363C152.008 28.7767 153.882 28.0469 156.331 28.0469C159.325 28.0469 161.446 28.8447 162.695 30.4404C163.957 32.0361 164.588 34.4606 164.588 37.7139H157.945V35.4688C157.945 35.0234 157.815 34.6771 157.556 34.4297C157.308 34.1823 156.968 34.0586 156.535 34.0586C156.016 34.0586 155.632 34.207 155.385 34.5039C155.15 34.7884 155.032 35.1595 155.032 35.6172C155.032 36.0749 155.156 36.5697 155.403 37.1016C155.651 37.6335 156.139 38.2458 156.869 38.9385L160.636 42.5566C161.39 43.2741 162.083 44.0348 162.714 44.8389C163.345 45.6305 163.852 46.5583 164.235 47.6221C164.619 48.6735 164.811 49.96 164.811 51.4814C164.811 54.5492 164.242 56.9551 163.104 58.6992C161.978 60.431 160.011 61.2969 157.203 61.2969ZM172.604 61.2969C170.81 61.2969 169.598 60.9196 168.967 60.165C168.348 59.3981 168.039 58.2292 168.039 56.6582V39.3096H166.165V34.2441H168.039V28.3438H174.496V34.2441H176.37V39.3096H174.496V55.0996C174.496 55.5573 174.57 55.8789 174.719 56.0645C174.867 56.25 175.152 56.3428 175.572 56.3428C175.869 56.3428 176.135 56.318 176.37 56.2686V60.7959C176.222 60.8454 175.758 60.9382 174.979 61.0742C174.199 61.2227 173.408 61.2969 172.604 61.2969ZM186.594 61.2969C181.052 61.2969 178.281 58.4209 178.281 52.6689V41.499C178.281 38.8766 179.017 36.7861 180.489 35.2275C181.961 33.6566 183.996 32.8711 186.594 32.8711C189.204 32.8711 191.245 33.6566 192.717 35.2275C194.189 36.7861 194.925 38.8766 194.925 41.499V52.6689C194.925 58.4209 192.148 61.2969 186.594 61.2969ZM186.594 56.1758C187.15 56.1758 187.546 55.9779 187.781 55.582C188.029 55.1738 188.152 54.6605 188.152 54.042V40.4414C188.152 38.821 187.633 38.0107 186.594 38.0107C185.555 38.0107 185.035 38.821 185.035 40.4414V54.042C185.035 54.6605 185.153 55.1738 185.388 55.582C185.635 55.9779 186.037 56.1758 186.594 56.1758ZM197.393 61V33.168H204.146V36.2666C204.468 35.1904 205.037 34.3493 205.854 33.7432C206.67 33.137 207.697 32.834 208.934 32.834V38.3818C208.389 38.3818 207.74 38.4437 206.985 38.5674C206.231 38.6787 205.569 38.8395 205 39.0498C204.431 39.2477 204.146 39.4704 204.146 39.7178V61H197.393ZM218.359 61.2969C216.38 61.2969 214.803 60.9258 213.628 60.1836C212.453 59.4414 211.612 58.3714 211.104 56.9736C210.597 55.5758 210.344 53.8936 210.344 51.9268V40.7383C210.344 38.153 211.086 36.1986 212.57 34.875C214.055 33.5391 216.096 32.8711 218.693 32.8711C224.037 32.8711 226.709 35.4935 226.709 40.7383V42.7607C226.709 45.21 226.684 46.8551 226.635 47.6963H216.986V53.0771C216.986 53.5719 217.017 54.0605 217.079 54.543C217.141 55.013 217.277 55.4027 217.487 55.7119C217.71 56.0212 218.062 56.1758 218.545 56.1758C219.238 56.1758 219.671 55.8789 219.844 55.2852C220.017 54.679 220.104 53.8936 220.104 52.9287V50.2568H226.709V51.834C226.709 53.9121 226.449 55.6562 225.93 57.0664C225.423 58.4642 224.557 59.5218 223.332 60.2393C222.12 60.9443 220.462 61.2969 218.359 61.2969ZM216.949 44.3936H220.104V40.6455C220.104 39.6436 219.98 38.9261 219.732 38.4932C219.485 38.0479 219.114 37.8252 218.619 37.8252C218.087 37.8252 217.673 38.0355 217.376 38.4561C217.091 38.8766 216.949 39.6064 216.949 40.6455V44.3936Z" fill="white"/>
</svg>
