<svg width="222" height="78" viewBox="0 0 222 78" fill="none" xmlns="http://www.w3.org/2000/svg">
<rect width="222" height="78" rx="2" fill="black"/>
<path d="M32.807 26.0555C29.9371 33.809 27.4924 40.3587 27.3861 40.6065C27.2798 40.9606 27.9884 41.0314 30.6811 40.9606L34.1533 40.8544L36.3855 34.8357L38.6531 28.817L38.4759 33.0655C38.3696 35.4022 38.1925 38.1637 38.0507 39.155L37.8736 41.0314H41.5938H45.314L50.6641 26.6928C53.6048 18.7978 56.0141 12.2835 56.0141 12.1772C56.0141 12.071 54.526 12.0002 52.6836 12.0002H49.3531L48.4319 14.3723C47.9359 15.7176 46.873 18.4437 46.0935 20.4971L44.6408 24.2145L44.8534 19.612C44.9597 17.063 45.1369 14.3369 45.2432 13.4872L45.4558 12.0002H41.771H38.0507L32.807 26.0555Z" fill="white"/>
<path d="M56.6868 12.956C53.6397 20.8865 46.4473 40.3232 46.4473 40.6418C46.4473 40.925 47.333 41.0313 49.7423 40.9604L53.002 40.8542L58.3874 26.5157C61.3636 18.6206 63.8083 12.1417 63.8083 12.0709C63.8083 12.0355 62.2848 12.0001 60.4424 12.0001C57.0765 12.0001 57.0411 12.0001 56.6868 12.956Z" fill="white"/>
<path d="M64.8715 12.1064C64.8715 12.1772 62.4977 18.6561 59.5569 26.5158C56.6516 34.3754 54.2423 40.8543 54.2423 40.9251C54.2423 40.9959 55.7658 40.9959 57.6791 40.9605L61.0804 40.8543L63.2417 35.0835L65.403 29.3127L65.6156 33.1363C65.7573 35.2251 65.8636 37.8804 65.899 38.9779L65.9344 40.9959L70.2216 41.1021L74.5087 41.2084L56.2973 46.1649C38.8653 50.909 37.9796 51.1214 34.7554 51.1214C31.9918 51.1214 31.0706 50.9798 29.6179 50.3071C23.6301 47.5811 22.142 41.2084 25.5434 32.9947L26.252 31.2953L25.3662 32.3574C20.2642 38.3407 15.6936 45.8463 13.8512 51.2985C12.7529 54.4848 12.7174 59.0519 13.7449 61.0699C16.1188 65.6016 22.3192 68.1861 28.6967 67.301C32.9838 66.6991 36.3852 65.4246 52.7542 58.4146C80.0359 46.7314 118.549 29.9853 118.903 29.6667C119.081 29.4543 119.01 29.3481 118.726 29.3481C118.443 29.3481 111.428 31.1891 103.208 33.4195C94.9522 35.65 88.1141 37.491 88.0432 37.491C87.9369 37.491 88.0432 37.1723 88.2558 36.8183C88.929 35.5083 88.681 35.4021 84.7482 35.2959L80.8862 35.1897L82.1617 31.7555L83.4372 28.3214L86.7677 28.2152L90.0982 28.1089L90.9485 25.8431C91.4091 24.604 91.7989 23.471 91.7989 23.294C91.7989 23.1524 90.3817 22.94 88.681 22.9046L85.5631 22.7984L86.5906 19.8598L87.6535 16.9567H91.1257H94.5979L95.2711 15.0803C95.6608 14.089 96.086 12.9561 96.2277 12.6021C96.4757 12.0356 95.838 12.0002 86.0945 12.0002H75.6779L72.3474 16.0716C70.505 18.3375 68.9815 20.1077 68.9106 20.0369C68.8398 19.9661 69.4066 18.3375 70.1861 16.3903C70.9656 14.4785 71.6034 12.6729 71.6034 12.425C71.6034 12.1064 70.6822 12.0002 68.2374 12.0002C66.395 12.0002 64.8715 12.0356 64.8715 12.1064ZM77.5203 25.9847L72.7726 38.6239L72.56 34.6232C72.4183 32.3928 72.312 29.0648 72.312 27.2238V23.8605L77.2014 18.5145C79.8587 15.576 82.0909 13.1685 82.1617 13.2393C82.1972 13.2747 80.1067 19.0102 77.5203 25.9847Z" fill="white"/>
<path d="M138.203 55.2969C135.222 55.2969 133.07 54.5547 131.746 53.0703C130.435 51.5859 129.779 49.2233 129.779 45.9824V42.791H136.236V46.873C136.236 47.6276 136.348 48.2214 136.57 48.6543C136.805 49.0749 137.207 49.2852 137.776 49.2852C138.37 49.2852 138.778 49.112 139.001 48.7656C139.236 48.4193 139.354 47.8503 139.354 47.0586C139.354 46.0566 139.255 45.2217 139.057 44.5537C138.859 43.8734 138.512 43.2301 138.018 42.624C137.535 42.0055 136.861 41.2881 135.995 40.4717L133.063 37.6885C130.874 35.6227 129.779 33.2601 129.779 30.6006C129.779 27.8174 130.423 25.696 131.709 24.2363C133.008 22.7767 134.882 22.0469 137.331 22.0469C140.325 22.0469 142.446 22.8447 143.695 24.4404C144.957 26.0361 145.588 28.4606 145.588 31.7139H138.945V29.4688C138.945 29.0234 138.815 28.6771 138.556 28.4297C138.308 28.1823 137.968 28.0586 137.535 28.0586C137.016 28.0586 136.632 28.207 136.385 28.5039C136.15 28.7884 136.032 29.1595 136.032 29.6172C136.032 30.0749 136.156 30.5697 136.403 31.1016C136.651 31.6335 137.139 32.2458 137.869 32.9385L141.636 36.5566C142.39 37.2741 143.083 38.0348 143.714 38.8389C144.345 39.6305 144.852 40.5583 145.235 41.6221C145.619 42.6735 145.811 43.96 145.811 45.4814C145.811 48.5492 145.242 50.9551 144.104 52.6992C142.978 54.431 141.011 55.2969 138.203 55.2969ZM153.604 55.2969C151.81 55.2969 150.598 54.9196 149.967 54.165C149.348 53.3981 149.039 52.2292 149.039 50.6582V33.3096H147.165V28.2441H149.039V22.3438H155.496V28.2441H157.37V33.3096H155.496V49.0996C155.496 49.5573 155.57 49.8789 155.719 50.0645C155.867 50.25 156.152 50.3428 156.572 50.3428C156.869 50.3428 157.135 50.318 157.37 50.2686V54.7959C157.222 54.8454 156.758 54.9382 155.979 55.0742C155.199 55.2227 154.408 55.2969 153.604 55.2969ZM167.594 55.2969C162.052 55.2969 159.281 52.4209 159.281 46.6689V35.499C159.281 32.8766 160.017 30.7861 161.489 29.2275C162.961 27.6566 164.996 26.8711 167.594 26.8711C170.204 26.8711 172.245 27.6566 173.717 29.2275C175.189 30.7861 175.925 32.8766 175.925 35.499V46.6689C175.925 52.4209 173.148 55.2969 167.594 55.2969ZM167.594 50.1758C168.15 50.1758 168.546 49.9779 168.781 49.582C169.029 49.1738 169.152 48.6605 169.152 48.042V34.4414C169.152 32.821 168.633 32.0107 167.594 32.0107C166.555 32.0107 166.035 32.821 166.035 34.4414V48.042C166.035 48.6605 166.153 49.1738 166.388 49.582C166.635 49.9779 167.037 50.1758 167.594 50.1758ZM178.393 55V27.168H185.146V30.2666C185.468 29.1904 186.037 28.3493 186.854 27.7432C187.67 27.137 188.697 26.834 189.934 26.834V32.3818C189.389 32.3818 188.74 32.4437 187.985 32.5674C187.231 32.6787 186.569 32.8395 186 33.0498C185.431 33.2477 185.146 33.4704 185.146 33.7178V55H178.393ZM199.359 55.2969C197.38 55.2969 195.803 54.9258 194.628 54.1836C193.453 53.4414 192.612 52.3714 192.104 50.9736C191.597 49.5758 191.344 47.8936 191.344 45.9268V34.7383C191.344 32.153 192.086 30.1986 193.57 28.875C195.055 27.5391 197.096 26.8711 199.693 26.8711C205.037 26.8711 207.709 29.4935 207.709 34.7383V36.7607C207.709 39.21 207.684 40.8551 207.635 41.6963H197.986V47.0771C197.986 47.5719 198.017 48.0605 198.079 48.543C198.141 49.013 198.277 49.4027 198.487 49.7119C198.71 50.0212 199.062 50.1758 199.545 50.1758C200.238 50.1758 200.671 49.8789 200.844 49.2852C201.017 48.679 201.104 47.8936 201.104 46.9287V44.2568H207.709V45.834C207.709 47.9121 207.449 49.6562 206.93 51.0664C206.423 52.4642 205.557 53.5218 204.332 54.2393C203.12 54.9443 201.462 55.2969 199.359 55.2969ZM197.949 38.3936H201.104V34.6455C201.104 33.6436 200.98 32.9261 200.732 32.4932C200.485 32.0479 200.114 31.8252 199.619 31.8252C199.087 31.8252 198.673 32.0355 198.376 32.4561C198.091 32.8766 197.949 33.6064 197.949 34.6455V38.3936Z" fill="white"/>
</svg>
