<svg aria-roledescription="er" viewBox="0 0 353.5523376464844 377" style="max-width: 353.552px; background-color: white;" xmlns:xlink="http://www.w3.org/1999/xlink" xmlns="http://www.w3.org/2000/svg" width="100%" id="mermaid-0"><style>#mermaid-0{font-family:"trebuchet ms",verdana,arial,sans-serif;font-size:16px;fill:#000000;}#mermaid-0 .error-icon{fill:#552222;}#mermaid-0 .error-text{fill:#552222;stroke:#552222;}#mermaid-0 .edge-thickness-normal{stroke-width:2px;}#mermaid-0 .edge-thickness-thick{stroke-width:3.5px;}#mermaid-0 .edge-pattern-solid{stroke-dasharray:0;}#mermaid-0 .edge-pattern-dashed{stroke-dasharray:3;}#mermaid-0 .edge-pattern-dotted{stroke-dasharray:2;}#mermaid-0 .marker{fill:#000000;stroke:#000000;}#mermaid-0 .marker.cross{stroke:#000000;}#mermaid-0 svg{font-family:"trebuchet ms",verdana,arial,sans-serif;font-size:16px;}#mermaid-0 .entityBox{fill:#cde498;stroke:#13540c;}#mermaid-0 .attributeBoxOdd{fill:#ffffff;stroke:#13540c;}#mermaid-0 .attributeBoxEven{fill:#f2f2f2;stroke:#13540c;}#mermaid-0 .relationshipLabelBox{fill:hsl(78.1578947368, 58.4615384615%, 84.5098039216%);opacity:0.7;background-color:hsl(78.1578947368, 58.4615384615%, 84.5098039216%);}#mermaid-0 .relationshipLabelBox rect{opacity:0.5;}#mermaid-0 .relationshipLine{stroke:#000000;}#mermaid-0 .entityTitleText{text-anchor:middle;font-size:18px;fill:#000000;}#mermaid-0 :root{--mermaid-font-family:"trebuchet ms",verdana,arial,sans-serif;}</style><g/><defs><marker orient="auto" markerHeight="18" markerWidth="18" refY="9" refX="0" id="ONLY_ONE_START"><path d="M9,0 L9,18 M15,0 L15,18" fill="none" stroke="gray"/></marker></defs><defs><marker orient="auto" markerHeight="18" markerWidth="18" refY="9" refX="18" id="ONLY_ONE_END"><path d="M3,0 L3,18 M9,0 L9,18" fill="none" stroke="gray"/></marker></defs><defs><marker orient="auto" markerHeight="18" markerWidth="30" refY="9" refX="0" id="ZERO_OR_ONE_START"><circle r="6" cy="9" cx="21" fill="white" stroke="gray"/><path d="M9,0 L9,18" fill="none" stroke="gray"/></marker></defs><defs><marker orient="auto" markerHeight="18" markerWidth="30" refY="9" refX="30" id="ZERO_OR_ONE_END"><circle r="6" cy="9" cx="9" fill="white" stroke="gray"/><path d="M21,0 L21,18" fill="none" stroke="gray"/></marker></defs><defs><marker orient="auto" markerHeight="36" markerWidth="45" refY="18" refX="18" id="ONE_OR_MORE_START"><path d="M0,18 Q 18,0 36,18 Q 18,36 0,18 M42,9 L42,27" fill="none" stroke="gray"/></marker></defs><defs><marker orient="auto" markerHeight="36" markerWidth="45" refY="18" refX="27" id="ONE_OR_MORE_END"><path d="M3,9 L3,27 M9,18 Q27,0 45,18 Q27,36 9,18" fill="none" stroke="gray"/></marker></defs><defs><marker orient="auto" markerHeight="36" markerWidth="57" refY="18" refX="18" id="ZERO_OR_MORE_START"><circle r="6" cy="18" cx="48" fill="white" stroke="gray"/><path d="M0,18 Q18,0 36,18 Q18,36 0,18" fill="none" stroke="gray"/></marker></defs><defs><marker orient="auto" markerHeight="36" markerWidth="57" refY="18" refX="39" id="ZERO_OR_MORE_END"><circle r="6" cy="18" cx="9" fill="white" stroke="gray"/><path d="M21,18 Q39,0 57,18 Q39,36 21,18" fill="none" stroke="gray"/></marker></defs><path style="stroke: gray; fill: none;" marker-start="url(#ZERO_OR_MORE_START)" marker-end="url(#ONLY_ONE_END)" d="M76.77616882324219,117.5L76.77616882324219,127.58333333333333C76.77616882324219,137.66666666666666,76.77616882324219,157.83333333333334,84.45113754272461,176.41652352523866C92.12610626220703,194.99971371714398,107.47604370117188,211.99942743428792,115.1510124206543,220.49928429285993L122.82598114013672,228.99914115143193" class="er relationshipLine"/><path style="stroke: gray; fill: none;" marker-start="url(#ZERO_OR_ONE_START)" marker-end="url(#ONLY_ONE_END)" d="M283.5523376464844,128L283.5523376464844,136.33333333333334C283.5523376464844,144.66666666666666,283.5523376464844,161.33333333333334,275.87736892700195,178.16652352523866C268.20240020751953,194.99971371714398,252.8524627685547,211.99942743428792,245.17749404907227,220.49928429285993L237.50252532958984,228.99914115143193" class="er relationshipLine"/><g transform="translate(122.82598114013672,228 )" id="entity-consumers-b7327ea2-0bc4-47bc-9351-d9e98661ee09"><rect height="129" width="114.67654418945312" y="0" x="0" class="er entityBox"/><text style="dominant-baseline: middle; text-anchor: middle; font-size: 12px;" transform="translate(57.33827209472656,12)" y="0" x="0" id="text-entity-consumers-b7327ea2-0bc4-47bc-9351-d9e98661ee09" class="er entityLabel">consumers</text><rect height="21" width="36.947052001953125" y="24" x="0" class="er attributeBoxOdd"/><text style="dominant-baseline: middle; font-size: 10.2px;" transform="translate(5,34.5)" y="0" x="0" id="text-entity-consumers-b7327ea2-0bc4-47bc-9351-d9e98661ee09-attr-1-type" class="er entityLabel">String</text><rect height="21" width="53.93450927734375" y="24" x="36.947052001953125" class="er attributeBoxOdd"/><text style="dominant-baseline: middle; font-size: 10.2px;" transform="translate(41.947052001953125,34.5)" y="0" x="0" id="text-entity-consumers-b7327ea2-0bc4-47bc-9351-d9e98661ee09-attr-1-name" class="er entityLabel">id</text><rect height="21" width="23.79498291015625" y="24" x="90.88156127929688" class="er attributeBoxOdd"/><text style="dominant-baseline: middle; font-size: 10.2px;" transform="translate(95.88156127929688,34.5)" y="0" x="0" id="text-entity-consumers-b7327ea2-0bc4-47bc-9351-d9e98661ee09-attr-1-key" class="er entityLabel">PK</text><rect height="21" width="36.947052001953125" y="45" x="0" class="er attributeBoxEven"/><text style="dominant-baseline: middle; font-size: 10.2px;" transform="translate(5,55.5)" y="0" x="0" id="text-entity-consumers-b7327ea2-0bc4-47bc-9351-d9e98661ee09-attr-2-type" class="er entityLabel">String</text><rect height="21" width="53.93450927734375" y="45" x="36.947052001953125" class="er attributeBoxEven"/><text style="dominant-baseline: middle; font-size: 10.2px;" transform="translate(41.947052001953125,55.5)" y="0" x="0" id="text-entity-consumers-b7327ea2-0bc4-47bc-9351-d9e98661ee09-attr-2-name" class="er entityLabel">name</text><rect height="21" width="23.79498291015625" y="45" x="90.88156127929688" class="er attributeBoxEven"/><text style="dominant-baseline: middle; font-size: 10.2px;" transform="translate(95.88156127929688,55.5)" y="0" x="0" id="text-entity-consumers-b7327ea2-0bc4-47bc-9351-d9e98661ee09-attr-2-key" class="er entityLabel"/><rect height="21" width="36.947052001953125" y="66" x="0" class="er attributeBoxOdd"/><text style="dominant-baseline: middle; font-size: 10.2px;" transform="translate(5,76.5)" y="0" x="0" id="text-entity-consumers-b7327ea2-0bc4-47bc-9351-d9e98661ee09-attr-3-type" class="er entityLabel">String</text><rect height="21" width="53.93450927734375" y="66" x="36.947052001953125" class="er attributeBoxOdd"/><text style="dominant-baseline: middle; font-size: 10.2px;" transform="translate(41.947052001953125,76.5)" y="0" x="0" id="text-entity-consumers-b7327ea2-0bc4-47bc-9351-d9e98661ee09-attr-3-name" class="er entityLabel">email</text><rect height="21" width="23.79498291015625" y="66" x="90.88156127929688" class="er attributeBoxOdd"/><text style="dominant-baseline: middle; font-size: 10.2px;" transform="translate(95.88156127929688,76.5)" y="0" x="0" id="text-entity-consumers-b7327ea2-0bc4-47bc-9351-d9e98661ee09-attr-3-key" class="er entityLabel"/><rect height="21" width="36.947052001953125" y="87" x="0" class="er attributeBoxEven"/><text style="dominant-baseline: middle; font-size: 10.2px;" transform="translate(5,97.5)" y="0" x="0" id="text-entity-consumers-b7327ea2-0bc4-47bc-9351-d9e98661ee09-attr-4-type" class="er entityLabel">String</text><rect height="21" width="53.93450927734375" y="87" x="36.947052001953125" class="er attributeBoxEven"/><text style="dominant-baseline: middle; font-size: 10.2px;" transform="translate(41.947052001953125,97.5)" y="0" x="0" id="text-entity-consumers-b7327ea2-0bc4-47bc-9351-d9e98661ee09-attr-4-name" class="er entityLabel">password</text><rect height="21" width="23.79498291015625" y="87" x="90.88156127929688" class="er attributeBoxEven"/><text style="dominant-baseline: middle; font-size: 10.2px;" transform="translate(95.88156127929688,97.5)" y="0" x="0" id="text-entity-consumers-b7327ea2-0bc4-47bc-9351-d9e98661ee09-attr-4-key" class="er entityLabel"/><rect height="21" width="36.947052001953125" y="108" x="0" class="er attributeBoxOdd"/><text style="dominant-baseline: middle; font-size: 10.2px;" transform="translate(5,118.5)" y="0" x="0" id="text-entity-consumers-b7327ea2-0bc4-47bc-9351-d9e98661ee09-attr-5-type" class="er entityLabel">String</text><rect height="21" width="53.93450927734375" y="108" x="36.947052001953125" class="er attributeBoxOdd"/><text style="dominant-baseline: middle; font-size: 10.2px;" transform="translate(41.947052001953125,118.5)" y="0" x="0" id="text-entity-consumers-b7327ea2-0bc4-47bc-9351-d9e98661ee09-attr-5-name" class="er entityLabel">cep</text><rect height="21" width="23.79498291015625" y="108" x="90.88156127929688" class="er attributeBoxOdd"/><text style="dominant-baseline: middle; font-size: 10.2px;" transform="translate(95.88156127929688,118.5)" y="0" x="0" id="text-entity-consumers-b7327ea2-0bc4-47bc-9351-d9e98661ee09-attr-5-key" class="er entityLabel"/></g><g transform="translate(20,30.5 )" id="entity-purchases-7eea4c86-cb3f-4e46-8db3-d15ab49aefd4"><rect height="87" width="113.55233764648438" y="0" x="0" class="er entityBox"/><text style="dominant-baseline: middle; text-anchor: middle; font-size: 12px;" transform="translate(56.77616882324219,12)" y="0" x="0" id="text-entity-purchases-7eea4c86-cb3f-4e46-8db3-d15ab49aefd4" class="er entityLabel">purchases</text><rect height="21" width="36.947052001953125" y="24" x="0" class="er attributeBoxOdd"/><text style="dominant-baseline: middle; font-size: 10.2px;" transform="translate(5,34.5)" y="0" x="0" id="text-entity-purchases-7eea4c86-cb3f-4e46-8db3-d15ab49aefd4-attr-1-type" class="er entityLabel">String</text><rect height="21" width="52.810302734375" y="24" x="36.947052001953125" class="er attributeBoxOdd"/><text style="dominant-baseline: middle; font-size: 10.2px;" transform="translate(41.947052001953125,34.5)" y="0" x="0" id="text-entity-purchases-7eea4c86-cb3f-4e46-8db3-d15ab49aefd4-attr-1-name" class="er entityLabel">id</text><rect height="21" width="23.79498291015625" y="24" x="89.75735473632812" class="er attributeBoxOdd"/><text style="dominant-baseline: middle; font-size: 10.2px;" transform="translate(94.75735473632812,34.5)" y="0" x="0" id="text-entity-purchases-7eea4c86-cb3f-4e46-8db3-d15ab49aefd4-attr-1-key" class="er entityLabel">PK</text><rect height="21" width="36.947052001953125" y="45" x="0" class="er attributeBoxEven"/><text style="dominant-baseline: middle; font-size: 10.2px;" transform="translate(5,55.5)" y="0" x="0" id="text-entity-purchases-7eea4c86-cb3f-4e46-8db3-d15ab49aefd4-attr-2-type" class="er entityLabel">String</text><rect height="21" width="52.810302734375" y="45" x="36.947052001953125" class="er attributeBoxEven"/><text style="dominant-baseline: middle; font-size: 10.2px;" transform="translate(41.947052001953125,55.5)" y="0" x="0" id="text-entity-purchases-7eea4c86-cb3f-4e46-8db3-d15ab49aefd4-attr-2-name" class="er entityLabel">productId</text><rect height="21" width="23.79498291015625" y="45" x="89.75735473632812" class="er attributeBoxEven"/><text style="dominant-baseline: middle; font-size: 10.2px;" transform="translate(94.75735473632812,55.5)" y="0" x="0" id="text-entity-purchases-7eea4c86-cb3f-4e46-8db3-d15ab49aefd4-attr-2-key" class="er entityLabel"/><rect height="21" width="36.947052001953125" y="66" x="0" class="er attributeBoxOdd"/><text style="dominant-baseline: middle; font-size: 10.2px;" transform="translate(5,76.5)" y="0" x="0" id="text-entity-purchases-7eea4c86-cb3f-4e46-8db3-d15ab49aefd4-attr-3-type" class="er entityLabel">String</text><rect height="21" width="52.810302734375" y="66" x="36.947052001953125" class="er attributeBoxOdd"/><text style="dominant-baseline: middle; font-size: 10.2px;" transform="translate(41.947052001953125,76.5)" y="0" x="0" id="text-entity-purchases-7eea4c86-cb3f-4e46-8db3-d15ab49aefd4-attr-3-name" class="er entityLabel">quantity</text><rect height="21" width="23.79498291015625" y="66" x="89.75735473632812" class="er attributeBoxOdd"/><text style="dominant-baseline: middle; font-size: 10.2px;" transform="translate(94.75735473632812,76.5)" y="0" x="0" id="text-entity-purchases-7eea4c86-cb3f-4e46-8db3-d15ab49aefd4-attr-3-key" class="er entityLabel"/></g><g transform="translate(233.55233764648438,20 )" id="entity-adresses-fd755cc8-d437-43fe-9cc7-15d8fcd68295"><rect height="108" width="100" y="0" x="0" class="er entityBox"/><text style="dominant-baseline: middle; text-anchor: middle; font-size: 12px;" transform="translate(50,12)" y="0" x="0" id="text-entity-adresses-fd755cc8-d437-43fe-9cc7-15d8fcd68295" class="er entityLabel">adresses</text><rect height="21" width="38.15027872721354" y="24" x="0" class="er attributeBoxOdd"/><text style="dominant-baseline: middle; font-size: 10.2px;" transform="translate(5,34.5)" y="0" x="0" id="text-entity-adresses-fd755cc8-d437-43fe-9cc7-15d8fcd68295-attr-1-type" class="er entityLabel">String</text><rect height="21" width="36.85151163736979" y="24" x="38.15027872721354" class="er attributeBoxOdd"/><text style="dominant-baseline: middle; font-size: 10.2px;" transform="translate(43.15027872721354,34.5)" y="0" x="0" id="text-entity-adresses-fd755cc8-d437-43fe-9cc7-15d8fcd68295-attr-1-name" class="er entityLabel">id</text><rect height="21" width="24.998209635416668" y="24" x="75.00179036458333" class="er attributeBoxOdd"/><text style="dominant-baseline: middle; font-size: 10.2px;" transform="translate(80.00179036458333,34.5)" y="0" x="0" id="text-entity-adresses-fd755cc8-d437-43fe-9cc7-15d8fcd68295-attr-1-key" class="er entityLabel">PK</text><rect height="21" width="38.15027872721354" y="45" x="0" class="er attributeBoxEven"/><text style="dominant-baseline: middle; font-size: 10.2px;" transform="translate(5,55.5)" y="0" x="0" id="text-entity-adresses-fd755cc8-d437-43fe-9cc7-15d8fcd68295-attr-2-type" class="er entityLabel">String</text><rect height="21" width="36.85151163736979" y="45" x="38.15027872721354" class="er attributeBoxEven"/><text style="dominant-baseline: middle; font-size: 10.2px;" transform="translate(43.15027872721354,55.5)" y="0" x="0" id="text-entity-adresses-fd755cc8-d437-43fe-9cc7-15d8fcd68295-attr-2-name" class="er entityLabel">state</text><rect height="21" width="24.998209635416668" y="45" x="75.00179036458333" class="er attributeBoxEven"/><text style="dominant-baseline: middle; font-size: 10.2px;" transform="translate(80.00179036458333,55.5)" y="0" x="0" id="text-entity-adresses-fd755cc8-d437-43fe-9cc7-15d8fcd68295-attr-2-key" class="er entityLabel"/><rect height="21" width="38.15027872721354" y="66" x="0" class="er attributeBoxOdd"/><text style="dominant-baseline: middle; font-size: 10.2px;" transform="translate(5,76.5)" y="0" x="0" id="text-entity-adresses-fd755cc8-d437-43fe-9cc7-15d8fcd68295-attr-3-type" class="er entityLabel">String</text><rect height="21" width="36.85151163736979" y="66" x="38.15027872721354" class="er attributeBoxOdd"/><text style="dominant-baseline: middle; font-size: 10.2px;" transform="translate(43.15027872721354,76.5)" y="0" x="0" id="text-entity-adresses-fd755cc8-d437-43fe-9cc7-15d8fcd68295-attr-3-name" class="er entityLabel">city</text><rect height="21" width="24.998209635416668" y="66" x="75.00179036458333" class="er attributeBoxOdd"/><text style="dominant-baseline: middle; font-size: 10.2px;" transform="translate(80.00179036458333,76.5)" y="0" x="0" id="text-entity-adresses-fd755cc8-d437-43fe-9cc7-15d8fcd68295-attr-3-key" class="er entityLabel"/><rect height="21" width="38.15027872721354" y="87" x="0" class="er attributeBoxEven"/><text style="dominant-baseline: middle; font-size: 10.2px;" transform="translate(5,97.5)" y="0" x="0" id="text-entity-adresses-fd755cc8-d437-43fe-9cc7-15d8fcd68295-attr-4-type" class="er entityLabel">String</text><rect height="21" width="36.85151163736979" y="87" x="38.15027872721354" class="er attributeBoxEven"/><text style="dominant-baseline: middle; font-size: 10.2px;" transform="translate(43.15027872721354,97.5)" y="0" x="0" id="text-entity-adresses-fd755cc8-d437-43fe-9cc7-15d8fcd68295-attr-4-name" class="er entityLabel">street</text><rect height="21" width="24.998209635416668" y="87" x="75.00179036458333" class="er attributeBoxEven"/><text style="dominant-baseline: middle; font-size: 10.2px;" transform="translate(80.00179036458333,97.5)" y="0" x="0" id="text-entity-adresses-fd755cc8-d437-43fe-9cc7-15d8fcd68295-attr-4-key" class="er entityLabel"/></g><rect height="14" width="52.69140625" y="171.9795379638672" x="59.21605682373047" class="er relationshipLabelBox"/><text style="text-anchor: middle; dominant-baseline: middle; font-size: 12px;" y="178.9795379638672" x="85.56175994873047" id="rel1" class="er relationshipLabel">consumer</text><rect height="14" width="52.69140625" y="176.84718322753906" x="246.66851806640625" class="er relationshipLabelBox"/><text style="text-anchor: middle; dominant-baseline: middle; font-size: 12px;" y="183.84718322753906" x="273.01422119140625" id="rel2" class="er relationshipLabel">consumer</text></svg>