<svg aria-roledescription="er" viewBox="0 0 432.3956604003906 440" style="max-width: 432.396px; background-color: white;" xmlns:xlink="http://www.w3.org/1999/xlink" xmlns="http://www.w3.org/2000/svg" width="100%" id="mermaid-0"><style>#mermaid-0{font-family:"trebuchet ms",verdana,arial,sans-serif;font-size:16px;fill:#000000;}#mermaid-0 .error-icon{fill:#552222;}#mermaid-0 .error-text{fill:#552222;stroke:#552222;}#mermaid-0 .edge-thickness-normal{stroke-width:2px;}#mermaid-0 .edge-thickness-thick{stroke-width:3.5px;}#mermaid-0 .edge-pattern-solid{stroke-dasharray:0;}#mermaid-0 .edge-pattern-dashed{stroke-dasharray:3;}#mermaid-0 .edge-pattern-dotted{stroke-dasharray:2;}#mermaid-0 .marker{fill:#000000;stroke:#000000;}#mermaid-0 .marker.cross{stroke:#000000;}#mermaid-0 svg{font-family:"trebuchet ms",verdana,arial,sans-serif;font-size:16px;}#mermaid-0 .entityBox{fill:#cde498;stroke:#13540c;}#mermaid-0 .attributeBoxOdd{fill:#ffffff;stroke:#13540c;}#mermaid-0 .attributeBoxEven{fill:#f2f2f2;stroke:#13540c;}#mermaid-0 .relationshipLabelBox{fill:hsl(78.1578947368, 58.4615384615%, 84.5098039216%);opacity:0.7;background-color:hsl(78.1578947368, 58.4615384615%, 84.5098039216%);}#mermaid-0 .relationshipLabelBox rect{opacity:0.5;}#mermaid-0 .relationshipLine{stroke:#000000;}#mermaid-0 .entityTitleText{text-anchor:middle;font-size:18px;fill:#000000;}#mermaid-0 :root{--mermaid-font-family:"trebuchet ms",verdana,arial,sans-serif;}</style><g/><defs><marker orient="auto" markerHeight="18" markerWidth="18" refY="9" refX="0" id="ONLY_ONE_START"><path d="M9,0 L9,18 M15,0 L15,18" fill="none" stroke="gray"/></marker></defs><defs><marker orient="auto" markerHeight="18" markerWidth="18" refY="9" refX="18" id="ONLY_ONE_END"><path d="M3,0 L3,18 M9,0 L9,18" fill="none" stroke="gray"/></marker></defs><defs><marker orient="auto" markerHeight="18" markerWidth="30" refY="9" refX="0" id="ZERO_OR_ONE_START"><circle r="6" cy="9" cx="21" fill="white" stroke="gray"/><path d="M9,0 L9,18" fill="none" stroke="gray"/></marker></defs><defs><marker orient="auto" markerHeight="18" markerWidth="30" refY="9" refX="30" id="ZERO_OR_ONE_END"><circle r="6" cy="9" cx="9" fill="white" stroke="gray"/><path d="M21,0 L21,18" fill="none" stroke="gray"/></marker></defs><defs><marker orient="auto" markerHeight="36" markerWidth="45" refY="18" refX="18" id="ONE_OR_MORE_START"><path d="M0,18 Q 18,0 36,18 Q 18,36 0,18 M42,9 L42,27" fill="none" stroke="gray"/></marker></defs><defs><marker orient="auto" markerHeight="36" markerWidth="45" refY="18" refX="27" id="ONE_OR_MORE_END"><path d="M3,9 L3,27 M9,18 Q27,0 45,18 Q27,36 9,18" fill="none" stroke="gray"/></marker></defs><defs><marker orient="auto" markerHeight="36" markerWidth="57" refY="18" refX="18" id="ZERO_OR_MORE_START"><circle r="6" cy="18" cx="48" fill="white" stroke="gray"/><path d="M0,18 Q18,0 36,18 Q18,36 0,18" fill="none" stroke="gray"/></marker></defs><defs><marker orient="auto" markerHeight="36" markerWidth="57" refY="18" refX="39" id="ZERO_OR_MORE_END"><circle r="6" cy="18" cx="9" fill="white" stroke="gray"/><path d="M21,18 Q39,0 57,18 Q39,36 21,18" fill="none" stroke="gray"/></marker></defs><path style="stroke: gray; fill: none;" marker-start="url(#ZERO_OR_MORE_START)" marker-end="url(#ONLY_ONE_END)" d="M76.77616882324219,149L76.77616882324219,164.33333333333334C76.77616882324219,179.66666666666666,76.77616882324219,210.33333333333334,87.73627599080403,235.8611697592844C98.69638315836589,261.3890061852355,120.61659749348958,281.7780123704709,131.57670466105142,291.9725154630886L142.53681182861328,302.1670185557063" class="er relationshipLine"/><path style="stroke: gray; fill: none;" marker-start="url(#ZERO_OR_MORE_START)" marker-end="url(#ONLY_ONE_END)" d="M322.9739990234375,191L322.9739990234375,199.33333333333334C322.9739990234375,207.66666666666666,322.9739990234375,224.33333333333334,312.01389185587567,242.8611697592844C301.0537846883138,261.3890061852355,279.1335703531901,281.7780123704709,268.17346318562824,291.9725154630886L257.2133560180664,302.1670185557063" class="er relationshipLine"/><g transform="translate(142.53681182861328,291 )" id="entity-consumers-442b67c8-a01f-47b5-8335-209778f0c393"><rect height="129" width="114.67654418945312" y="0" x="0" class="er entityBox"/><text style="dominant-baseline: middle; text-anchor: middle; font-size: 12px;" transform="translate(57.33827209472656,12)" y="0" x="0" id="text-entity-consumers-442b67c8-a01f-47b5-8335-209778f0c393" class="er entityLabel">consumers</text><rect height="21" width="36.947052001953125" y="24" x="0" class="er attributeBoxOdd"/><text style="dominant-baseline: middle; font-size: 10.2px;" transform="translate(5,34.5)" y="0" x="0" id="text-entity-consumers-442b67c8-a01f-47b5-8335-209778f0c393-attr-1-type" class="er entityLabel">String</text><rect height="21" width="53.93450927734375" y="24" x="36.947052001953125" class="er attributeBoxOdd"/><text style="dominant-baseline: middle; font-size: 10.2px;" transform="translate(41.947052001953125,34.5)" y="0" x="0" id="text-entity-consumers-442b67c8-a01f-47b5-8335-209778f0c393-attr-1-name" class="er entityLabel">id</text><rect height="21" width="23.79498291015625" y="24" x="90.88156127929688" class="er attributeBoxOdd"/><text style="dominant-baseline: middle; font-size: 10.2px;" transform="translate(95.88156127929688,34.5)" y="0" x="0" id="text-entity-consumers-442b67c8-a01f-47b5-8335-209778f0c393-attr-1-key" class="er entityLabel">PK</text><rect height="21" width="36.947052001953125" y="45" x="0" class="er attributeBoxEven"/><text style="dominant-baseline: middle; font-size: 10.2px;" transform="translate(5,55.5)" y="0" x="0" id="text-entity-consumers-442b67c8-a01f-47b5-8335-209778f0c393-attr-2-type" class="er entityLabel">String</text><rect height="21" width="53.93450927734375" y="45" x="36.947052001953125" class="er attributeBoxEven"/><text style="dominant-baseline: middle; font-size: 10.2px;" transform="translate(41.947052001953125,55.5)" y="0" x="0" id="text-entity-consumers-442b67c8-a01f-47b5-8335-209778f0c393-attr-2-name" class="er entityLabel">name</text><rect height="21" width="23.79498291015625" y="45" x="90.88156127929688" class="er attributeBoxEven"/><text style="dominant-baseline: middle; font-size: 10.2px;" transform="translate(95.88156127929688,55.5)" y="0" x="0" id="text-entity-consumers-442b67c8-a01f-47b5-8335-209778f0c393-attr-2-key" class="er entityLabel"/><rect height="21" width="36.947052001953125" y="66" x="0" class="er attributeBoxOdd"/><text style="dominant-baseline: middle; font-size: 10.2px;" transform="translate(5,76.5)" y="0" x="0" id="text-entity-consumers-442b67c8-a01f-47b5-8335-209778f0c393-attr-3-type" class="er entityLabel">String</text><rect height="21" width="53.93450927734375" y="66" x="36.947052001953125" class="er attributeBoxOdd"/><text style="dominant-baseline: middle; font-size: 10.2px;" transform="translate(41.947052001953125,76.5)" y="0" x="0" id="text-entity-consumers-442b67c8-a01f-47b5-8335-209778f0c393-attr-3-name" class="er entityLabel">email</text><rect height="21" width="23.79498291015625" y="66" x="90.88156127929688" class="er attributeBoxOdd"/><text style="dominant-baseline: middle; font-size: 10.2px;" transform="translate(95.88156127929688,76.5)" y="0" x="0" id="text-entity-consumers-442b67c8-a01f-47b5-8335-209778f0c393-attr-3-key" class="er entityLabel"/><rect height="21" width="36.947052001953125" y="87" x="0" class="er attributeBoxEven"/><text style="dominant-baseline: middle; font-size: 10.2px;" transform="translate(5,97.5)" y="0" x="0" id="text-entity-consumers-442b67c8-a01f-47b5-8335-209778f0c393-attr-4-type" class="er entityLabel">String</text><rect height="21" width="53.93450927734375" y="87" x="36.947052001953125" class="er attributeBoxEven"/><text style="dominant-baseline: middle; font-size: 10.2px;" transform="translate(41.947052001953125,97.5)" y="0" x="0" id="text-entity-consumers-442b67c8-a01f-47b5-8335-209778f0c393-attr-4-name" class="er entityLabel">password</text><rect height="21" width="23.79498291015625" y="87" x="90.88156127929688" class="er attributeBoxEven"/><text style="dominant-baseline: middle; font-size: 10.2px;" transform="translate(95.88156127929688,97.5)" y="0" x="0" id="text-entity-consumers-442b67c8-a01f-47b5-8335-209778f0c393-attr-4-key" class="er entityLabel"/><rect height="21" width="36.947052001953125" y="108" x="0" class="er attributeBoxOdd"/><text style="dominant-baseline: middle; font-size: 10.2px;" transform="translate(5,118.5)" y="0" x="0" id="text-entity-consumers-442b67c8-a01f-47b5-8335-209778f0c393-attr-5-type" class="er entityLabel">String</text><rect height="21" width="53.93450927734375" y="108" x="36.947052001953125" class="er attributeBoxOdd"/><text style="dominant-baseline: middle; font-size: 10.2px;" transform="translate(41.947052001953125,118.5)" y="0" x="0" id="text-entity-consumers-442b67c8-a01f-47b5-8335-209778f0c393-attr-5-name" class="er entityLabel">cep</text><rect height="21" width="23.79498291015625" y="108" x="90.88156127929688" class="er attributeBoxOdd"/><text style="dominant-baseline: middle; font-size: 10.2px;" transform="translate(95.88156127929688,118.5)" y="0" x="0" id="text-entity-consumers-442b67c8-a01f-47b5-8335-209778f0c393-attr-5-key" class="er entityLabel"/></g><g transform="translate(20,62 )" id="entity-purchases-cf143c36-64bb-4475-8407-8cc67c26eba0"><rect height="87" width="113.55233764648438" y="0" x="0" class="er entityBox"/><text style="dominant-baseline: middle; text-anchor: middle; font-size: 12px;" transform="translate(56.77616882324219,12)" y="0" x="0" id="text-entity-purchases-cf143c36-64bb-4475-8407-8cc67c26eba0" class="er entityLabel">purchases</text><rect height="21" width="36.947052001953125" y="24" x="0" class="er attributeBoxOdd"/><text style="dominant-baseline: middle; font-size: 10.2px;" transform="translate(5,34.5)" y="0" x="0" id="text-entity-purchases-cf143c36-64bb-4475-8407-8cc67c26eba0-attr-1-type" class="er entityLabel">String</text><rect height="21" width="52.810302734375" y="24" x="36.947052001953125" class="er attributeBoxOdd"/><text style="dominant-baseline: middle; font-size: 10.2px;" transform="translate(41.947052001953125,34.5)" y="0" x="0" id="text-entity-purchases-cf143c36-64bb-4475-8407-8cc67c26eba0-attr-1-name" class="er entityLabel">id</text><rect height="21" width="23.79498291015625" y="24" x="89.75735473632812" class="er attributeBoxOdd"/><text style="dominant-baseline: middle; font-size: 10.2px;" transform="translate(94.75735473632812,34.5)" y="0" x="0" id="text-entity-purchases-cf143c36-64bb-4475-8407-8cc67c26eba0-attr-1-key" class="er entityLabel">PK</text><rect height="21" width="36.947052001953125" y="45" x="0" class="er attributeBoxEven"/><text style="dominant-baseline: middle; font-size: 10.2px;" transform="translate(5,55.5)" y="0" x="0" id="text-entity-purchases-cf143c36-64bb-4475-8407-8cc67c26eba0-attr-2-type" class="er entityLabel">String</text><rect height="21" width="52.810302734375" y="45" x="36.947052001953125" class="er attributeBoxEven"/><text style="dominant-baseline: middle; font-size: 10.2px;" transform="translate(41.947052001953125,55.5)" y="0" x="0" id="text-entity-purchases-cf143c36-64bb-4475-8407-8cc67c26eba0-attr-2-name" class="er entityLabel">productId</text><rect height="21" width="23.79498291015625" y="45" x="89.75735473632812" class="er attributeBoxEven"/><text style="dominant-baseline: middle; font-size: 10.2px;" transform="translate(94.75735473632812,55.5)" y="0" x="0" id="text-entity-purchases-cf143c36-64bb-4475-8407-8cc67c26eba0-attr-2-key" class="er entityLabel"/><rect height="21" width="36.947052001953125" y="66" x="0" class="er attributeBoxOdd"/><text style="dominant-baseline: middle; font-size: 10.2px;" transform="translate(5,76.5)" y="0" x="0" id="text-entity-purchases-cf143c36-64bb-4475-8407-8cc67c26eba0-attr-3-type" class="er entityLabel">String</text><rect height="21" width="52.810302734375" y="66" x="36.947052001953125" class="er attributeBoxOdd"/><text style="dominant-baseline: middle; font-size: 10.2px;" transform="translate(41.947052001953125,76.5)" y="0" x="0" id="text-entity-purchases-cf143c36-64bb-4475-8407-8cc67c26eba0-attr-3-name" class="er entityLabel">quantity</text><rect height="21" width="23.79498291015625" y="66" x="89.75735473632812" class="er attributeBoxOdd"/><text style="dominant-baseline: middle; font-size: 10.2px;" transform="translate(94.75735473632812,76.5)" y="0" x="0" id="text-entity-purchases-cf143c36-64bb-4475-8407-8cc67c26eba0-attr-3-key" class="er entityLabel"/></g><g transform="translate(233.55233764648438,20 )" id="entity-addresses-404b9afc-3fac-45fb-b599-d95f435f3bc8"><rect height="171" width="178.84332275390625" y="0" x="0" class="er entityBox"/><text style="dominant-baseline: middle; text-anchor: middle; font-size: 12px;" transform="translate(89.42166137695312,12)" y="0" x="0" id="text-entity-addresses-404b9afc-3fac-45fb-b599-d95f435f3bc8" class="er entityLabel">addresses</text><rect height="21" width="36.947052001953125" y="24" x="0" class="er attributeBoxOdd"/><text style="dominant-baseline: middle; font-size: 10.2px;" transform="translate(5,34.5)" y="0" x="0" id="text-entity-addresses-404b9afc-3fac-45fb-b599-d95f435f3bc8-attr-1-type" class="er entityLabel">String</text><rect height="21" width="72.6480712890625" y="24" x="36.947052001953125" class="er attributeBoxOdd"/><text style="dominant-baseline: middle; font-size: 10.2px;" transform="translate(41.947052001953125,34.5)" y="0" x="0" id="text-entity-addresses-404b9afc-3fac-45fb-b599-d95f435f3bc8-attr-1-name" class="er entityLabel">id</text><rect height="21" width="23.79498291015625" y="24" x="109.59512329101562" class="er attributeBoxOdd"/><text style="dominant-baseline: middle; font-size: 10.2px;" transform="translate(114.59512329101562,34.5)" y="0" x="0" id="text-entity-addresses-404b9afc-3fac-45fb-b599-d95f435f3bc8-attr-1-key" class="er entityLabel">PK</text><rect height="21" width="45.453216552734375" y="24" x="133.39010620117188" class="er attributeBoxOdd"/><text style="dominant-baseline: middle; font-size: 10.2px;" transform="translate(138.39010620117188,34.5)" y="0" x="0" id="text-entity-addresses-404b9afc-3fac-45fb-b599-d95f435f3bc8-attr-1-comment" class="er entityLabel"/><rect height="21" width="36.947052001953125" y="45" x="0" class="er attributeBoxEven"/><text style="dominant-baseline: middle; font-size: 10.2px;" transform="translate(5,55.5)" y="0" x="0" id="text-entity-addresses-404b9afc-3fac-45fb-b599-d95f435f3bc8-attr-2-type" class="er entityLabel">String</text><rect height="21" width="72.6480712890625" y="45" x="36.947052001953125" class="er attributeBoxEven"/><text style="dominant-baseline: middle; font-size: 10.2px;" transform="translate(41.947052001953125,55.5)" y="0" x="0" id="text-entity-addresses-404b9afc-3fac-45fb-b599-d95f435f3bc8-attr-2-name" class="er entityLabel">state</text><rect height="21" width="23.79498291015625" y="45" x="109.59512329101562" class="er attributeBoxEven"/><text style="dominant-baseline: middle; font-size: 10.2px;" transform="translate(114.59512329101562,55.5)" y="0" x="0" id="text-entity-addresses-404b9afc-3fac-45fb-b599-d95f435f3bc8-attr-2-key" class="er entityLabel"/><rect height="21" width="45.453216552734375" y="45" x="133.39010620117188" class="er attributeBoxEven"/><text style="dominant-baseline: middle; font-size: 10.2px;" transform="translate(138.39010620117188,55.5)" y="0" x="0" id="text-entity-addresses-404b9afc-3fac-45fb-b599-d95f435f3bc8-attr-2-comment" class="er entityLabel"/><rect height="21" width="36.947052001953125" y="66" x="0" class="er attributeBoxOdd"/><text style="dominant-baseline: middle; font-size: 10.2px;" transform="translate(5,76.5)" y="0" x="0" id="text-entity-addresses-404b9afc-3fac-45fb-b599-d95f435f3bc8-attr-3-type" class="er entityLabel">String</text><rect height="21" width="72.6480712890625" y="66" x="36.947052001953125" class="er attributeBoxOdd"/><text style="dominant-baseline: middle; font-size: 10.2px;" transform="translate(41.947052001953125,76.5)" y="0" x="0" id="text-entity-addresses-404b9afc-3fac-45fb-b599-d95f435f3bc8-attr-3-name" class="er entityLabel">city</text><rect height="21" width="23.79498291015625" y="66" x="109.59512329101562" class="er attributeBoxOdd"/><text style="dominant-baseline: middle; font-size: 10.2px;" transform="translate(114.59512329101562,76.5)" y="0" x="0" id="text-entity-addresses-404b9afc-3fac-45fb-b599-d95f435f3bc8-attr-3-key" class="er entityLabel"/><rect height="21" width="45.453216552734375" y="66" x="133.39010620117188" class="er attributeBoxOdd"/><text style="dominant-baseline: middle; font-size: 10.2px;" transform="translate(138.39010620117188,76.5)" y="0" x="0" id="text-entity-addresses-404b9afc-3fac-45fb-b599-d95f435f3bc8-attr-3-comment" class="er entityLabel"/><rect height="21" width="36.947052001953125" y="87" x="0" class="er attributeBoxEven"/><text style="dominant-baseline: middle; font-size: 10.2px;" transform="translate(5,97.5)" y="0" x="0" id="text-entity-addresses-404b9afc-3fac-45fb-b599-d95f435f3bc8-attr-4-type" class="er entityLabel">String</text><rect height="21" width="72.6480712890625" y="87" x="36.947052001953125" class="er attributeBoxEven"/><text style="dominant-baseline: middle; font-size: 10.2px;" transform="translate(41.947052001953125,97.5)" y="0" x="0" id="text-entity-addresses-404b9afc-3fac-45fb-b599-d95f435f3bc8-attr-4-name" class="er entityLabel">neighborhood</text><rect height="21" width="23.79498291015625" y="87" x="109.59512329101562" class="er attributeBoxEven"/><text style="dominant-baseline: middle; font-size: 10.2px;" transform="translate(114.59512329101562,97.5)" y="0" x="0" id="text-entity-addresses-404b9afc-3fac-45fb-b599-d95f435f3bc8-attr-4-key" class="er entityLabel"/><rect height="21" width="45.453216552734375" y="87" x="133.39010620117188" class="er attributeBoxEven"/><text style="dominant-baseline: middle; font-size: 10.2px;" transform="translate(138.39010620117188,97.5)" y="0" x="0" id="text-entity-addresses-404b9afc-3fac-45fb-b599-d95f435f3bc8-attr-4-comment" class="er entityLabel"/><rect height="21" width="36.947052001953125" y="108" x="0" class="er attributeBoxOdd"/><text style="dominant-baseline: middle; font-size: 10.2px;" transform="translate(5,118.5)" y="0" x="0" id="text-entity-addresses-404b9afc-3fac-45fb-b599-d95f435f3bc8-attr-5-type" class="er entityLabel">String</text><rect height="21" width="72.6480712890625" y="108" x="36.947052001953125" class="er attributeBoxOdd"/><text style="dominant-baseline: middle; font-size: 10.2px;" transform="translate(41.947052001953125,118.5)" y="0" x="0" id="text-entity-addresses-404b9afc-3fac-45fb-b599-d95f435f3bc8-attr-5-name" class="er entityLabel">street</text><rect height="21" width="23.79498291015625" y="108" x="109.59512329101562" class="er attributeBoxOdd"/><text style="dominant-baseline: middle; font-size: 10.2px;" transform="translate(114.59512329101562,118.5)" y="0" x="0" id="text-entity-addresses-404b9afc-3fac-45fb-b599-d95f435f3bc8-attr-5-key" class="er entityLabel"/><rect height="21" width="45.453216552734375" y="108" x="133.39010620117188" class="er attributeBoxOdd"/><text style="dominant-baseline: middle; font-size: 10.2px;" transform="translate(138.39010620117188,118.5)" y="0" x="0" id="text-entity-addresses-404b9afc-3fac-45fb-b599-d95f435f3bc8-attr-5-comment" class="er entityLabel"/><rect height="21" width="36.947052001953125" y="129" x="0" class="er attributeBoxEven"/><text style="dominant-baseline: middle; font-size: 10.2px;" transform="translate(5,139.5)" y="0" x="0" id="text-entity-addresses-404b9afc-3fac-45fb-b599-d95f435f3bc8-attr-6-type" class="er entityLabel">Int</text><rect height="21" width="72.6480712890625" y="129" x="36.947052001953125" class="er attributeBoxEven"/><text style="dominant-baseline: middle; font-size: 10.2px;" transform="translate(41.947052001953125,139.5)" y="0" x="0" id="text-entity-addresses-404b9afc-3fac-45fb-b599-d95f435f3bc8-attr-6-name" class="er entityLabel">number</text><rect height="21" width="23.79498291015625" y="129" x="109.59512329101562" class="er attributeBoxEven"/><text style="dominant-baseline: middle; font-size: 10.2px;" transform="translate(114.59512329101562,139.5)" y="0" x="0" id="text-entity-addresses-404b9afc-3fac-45fb-b599-d95f435f3bc8-attr-6-key" class="er entityLabel"/><rect height="21" width="45.453216552734375" y="129" x="133.39010620117188" class="er attributeBoxEven"/><text style="dominant-baseline: middle; font-size: 10.2px;" transform="translate(138.39010620117188,139.5)" y="0" x="0" id="text-entity-addresses-404b9afc-3fac-45fb-b599-d95f435f3bc8-attr-6-comment" class="er entityLabel">nullable</text><rect height="21" width="36.947052001953125" y="150" x="0" class="er attributeBoxOdd"/><text style="dominant-baseline: middle; font-size: 10.2px;" transform="translate(5,160.5)" y="0" x="0" id="text-entity-addresses-404b9afc-3fac-45fb-b599-d95f435f3bc8-attr-7-type" class="er entityLabel">String</text><rect height="21" width="72.6480712890625" y="150" x="36.947052001953125" class="er attributeBoxOdd"/><text style="dominant-baseline: middle; font-size: 10.2px;" transform="translate(41.947052001953125,160.5)" y="0" x="0" id="text-entity-addresses-404b9afc-3fac-45fb-b599-d95f435f3bc8-attr-7-name" class="er entityLabel">complement</text><rect height="21" width="23.79498291015625" y="150" x="109.59512329101562" class="er attributeBoxOdd"/><text style="dominant-baseline: middle; font-size: 10.2px;" transform="translate(114.59512329101562,160.5)" y="0" x="0" id="text-entity-addresses-404b9afc-3fac-45fb-b599-d95f435f3bc8-attr-7-key" class="er entityLabel"/><rect height="21" width="45.453216552734375" y="150" x="133.39010620117188" class="er attributeBoxOdd"/><text style="dominant-baseline: middle; font-size: 10.2px;" transform="translate(138.39010620117188,160.5)" y="0" x="0" id="text-entity-addresses-404b9afc-3fac-45fb-b599-d95f435f3bc8-attr-7-comment" class="er entityLabel">nullable</text></g><rect height="14" width="52.69140625" y="228.17205810546875" x="61.097999572753906" class="er relationshipLabelBox"/><text style="text-anchor: middle; dominant-baseline: middle; font-size: 12px;" y="235.17205810546875" x="87.4437026977539" id="rel1" class="er relationshipLabel">consumer</text><rect height="13.999984741210938" width="52.69140625" y="247.0626449584961" x="277.984375" class="er relationshipLabelBox"/><text style="text-anchor: middle; dominant-baseline: middle; font-size: 12px;" y="254.06263732910156" x="304.330078125" id="rel2" class="er relationshipLabel">consumer</text></svg>