<svg aria-roledescription="er" viewBox="0 0 379.9530029296875 419" style="max-width: 379.953px; background-color: white;" xmlns:xlink="http://www.w3.org/1999/xlink" xmlns="http://www.w3.org/2000/svg" width="100%" id="mermaid-0"><style>#mermaid-0{font-family:"trebuchet ms",verdana,arial,sans-serif;font-size:16px;fill:#000000;}#mermaid-0 .error-icon{fill:#552222;}#mermaid-0 .error-text{fill:#552222;stroke:#552222;}#mermaid-0 .edge-thickness-normal{stroke-width:2px;}#mermaid-0 .edge-thickness-thick{stroke-width:3.5px;}#mermaid-0 .edge-pattern-solid{stroke-dasharray:0;}#mermaid-0 .edge-pattern-dashed{stroke-dasharray:3;}#mermaid-0 .edge-pattern-dotted{stroke-dasharray:2;}#mermaid-0 .marker{fill:#000000;stroke:#000000;}#mermaid-0 .marker.cross{stroke:#000000;}#mermaid-0 svg{font-family:"trebuchet ms",verdana,arial,sans-serif;font-size:16px;}#mermaid-0 .entityBox{fill:#cde498;stroke:#13540c;}#mermaid-0 .attributeBoxOdd{fill:#ffffff;stroke:#13540c;}#mermaid-0 .attributeBoxEven{fill:#f2f2f2;stroke:#13540c;}#mermaid-0 .relationshipLabelBox{fill:hsl(78.1578947368, 58.4615384615%, 84.5098039216%);opacity:0.7;background-color:hsl(78.1578947368, 58.4615384615%, 84.5098039216%);}#mermaid-0 .relationshipLabelBox rect{opacity:0.5;}#mermaid-0 .relationshipLine{stroke:#000000;}#mermaid-0 .entityTitleText{text-anchor:middle;font-size:18px;fill:#000000;}#mermaid-0 :root{--mermaid-font-family:"trebuchet ms",verdana,arial,sans-serif;}</style><g/><defs><marker orient="auto" markerHeight="18" markerWidth="18" refY="9" refX="0" id="ONLY_ONE_START"><path d="M9,0 L9,18 M15,0 L15,18" fill="none" stroke="gray"/></marker></defs><defs><marker orient="auto" markerHeight="18" markerWidth="18" refY="9" refX="18" id="ONLY_ONE_END"><path d="M3,0 L3,18 M9,0 L9,18" fill="none" stroke="gray"/></marker></defs><defs><marker orient="auto" markerHeight="18" markerWidth="30" refY="9" refX="0" id="ZERO_OR_ONE_START"><circle r="6" cy="9" cx="21" fill="white" stroke="gray"/><path d="M9,0 L9,18" fill="none" stroke="gray"/></marker></defs><defs><marker orient="auto" markerHeight="18" markerWidth="30" refY="9" refX="30" id="ZERO_OR_ONE_END"><circle r="6" cy="9" cx="9" fill="white" stroke="gray"/><path d="M21,0 L21,18" fill="none" stroke="gray"/></marker></defs><defs><marker orient="auto" markerHeight="36" markerWidth="45" refY="18" refX="18" id="ONE_OR_MORE_START"><path d="M0,18 Q 18,0 36,18 Q 18,36 0,18 M42,9 L42,27" fill="none" stroke="gray"/></marker></defs><defs><marker orient="auto" markerHeight="36" markerWidth="45" refY="18" refX="27" id="ONE_OR_MORE_END"><path d="M3,9 L3,27 M9,18 Q27,0 45,18 Q27,36 9,18" fill="none" stroke="gray"/></marker></defs><defs><marker orient="auto" markerHeight="36" markerWidth="57" refY="18" refX="18" id="ZERO_OR_MORE_START"><circle r="6" cy="18" cx="48" fill="white" stroke="gray"/><path d="M0,18 Q18,0 36,18 Q18,36 0,18" fill="none" stroke="gray"/></marker></defs><defs><marker orient="auto" markerHeight="36" markerWidth="57" refY="18" refX="39" id="ZERO_OR_MORE_END"><circle r="6" cy="18" cx="9" fill="white" stroke="gray"/><path d="M21,18 Q39,0 57,18 Q39,36 21,18" fill="none" stroke="gray"/></marker></defs><path style="stroke: gray; fill: none;" marker-start="url(#ZERO_OR_MORE_START)" marker-end="url(#ONLY_ONE_END)" d="M76.77616882324219,138.5L76.77616882324219,152.08333333333334C76.77616882324219,165.66666666666666,76.77616882324219,192.83333333333334,85.55116526285808,215.55161595120737C94.32616170247395,238.2698985690814,111.87615458170573,256.5397971381628,120.65115102132161,265.67474642270344L129.4261474609375,274.80969570724415" class="er relationshipLine"/><path style="stroke: gray; fill: none;" marker-start="url(#ZERO_OR_ONE_START)" marker-end="url(#ONLY_ONE_END)" d="M296.75267028808594,170L296.75267028808594,178.33333333333334C296.75267028808594,186.66666666666666,296.75267028808594,203.33333333333334,287.97767384847003,220.80161595120737C279.2026774088542,238.2698985690814,261.6526845296224,256.5397971381628,252.8776880900065,265.67474642270344L244.10269165039062,274.80969570724415" class="er relationshipLine"/><g transform="translate(129.4261474609375,270 )" id="entity-consumers-aa4d291c-020e-40e5-b80e-491c201d3d89"><rect height="129" width="114.67654418945312" y="0" x="0" class="er entityBox"/><text style="dominant-baseline: middle; text-anchor: middle; font-size: 12px;" transform="translate(57.33827209472656,12)" y="0" x="0" id="text-entity-consumers-aa4d291c-020e-40e5-b80e-491c201d3d89" class="er entityLabel">consumers</text><rect height="21" width="36.947052001953125" y="24" x="0" class="er attributeBoxOdd"/><text style="dominant-baseline: middle; font-size: 10.2px;" transform="translate(5,34.5)" y="0" x="0" id="text-entity-consumers-aa4d291c-020e-40e5-b80e-491c201d3d89-attr-1-type" class="er entityLabel">String</text><rect height="21" width="53.93450927734375" y="24" x="36.947052001953125" class="er attributeBoxOdd"/><text style="dominant-baseline: middle; font-size: 10.2px;" transform="translate(41.947052001953125,34.5)" y="0" x="0" id="text-entity-consumers-aa4d291c-020e-40e5-b80e-491c201d3d89-attr-1-name" class="er entityLabel">id</text><rect height="21" width="23.79498291015625" y="24" x="90.88156127929688" class="er attributeBoxOdd"/><text style="dominant-baseline: middle; font-size: 10.2px;" transform="translate(95.88156127929688,34.5)" y="0" x="0" id="text-entity-consumers-aa4d291c-020e-40e5-b80e-491c201d3d89-attr-1-key" class="er entityLabel">PK</text><rect height="21" width="36.947052001953125" y="45" x="0" class="er attributeBoxEven"/><text style="dominant-baseline: middle; font-size: 10.2px;" transform="translate(5,55.5)" y="0" x="0" id="text-entity-consumers-aa4d291c-020e-40e5-b80e-491c201d3d89-attr-2-type" class="er entityLabel">String</text><rect height="21" width="53.93450927734375" y="45" x="36.947052001953125" class="er attributeBoxEven"/><text style="dominant-baseline: middle; font-size: 10.2px;" transform="translate(41.947052001953125,55.5)" y="0" x="0" id="text-entity-consumers-aa4d291c-020e-40e5-b80e-491c201d3d89-attr-2-name" class="er entityLabel">name</text><rect height="21" width="23.79498291015625" y="45" x="90.88156127929688" class="er attributeBoxEven"/><text style="dominant-baseline: middle; font-size: 10.2px;" transform="translate(95.88156127929688,55.5)" y="0" x="0" id="text-entity-consumers-aa4d291c-020e-40e5-b80e-491c201d3d89-attr-2-key" class="er entityLabel"/><rect height="21" width="36.947052001953125" y="66" x="0" class="er attributeBoxOdd"/><text style="dominant-baseline: middle; font-size: 10.2px;" transform="translate(5,76.5)" y="0" x="0" id="text-entity-consumers-aa4d291c-020e-40e5-b80e-491c201d3d89-attr-3-type" class="er entityLabel">String</text><rect height="21" width="53.93450927734375" y="66" x="36.947052001953125" class="er attributeBoxOdd"/><text style="dominant-baseline: middle; font-size: 10.2px;" transform="translate(41.947052001953125,76.5)" y="0" x="0" id="text-entity-consumers-aa4d291c-020e-40e5-b80e-491c201d3d89-attr-3-name" class="er entityLabel">email</text><rect height="21" width="23.79498291015625" y="66" x="90.88156127929688" class="er attributeBoxOdd"/><text style="dominant-baseline: middle; font-size: 10.2px;" transform="translate(95.88156127929688,76.5)" y="0" x="0" id="text-entity-consumers-aa4d291c-020e-40e5-b80e-491c201d3d89-attr-3-key" class="er entityLabel"/><rect height="21" width="36.947052001953125" y="87" x="0" class="er attributeBoxEven"/><text style="dominant-baseline: middle; font-size: 10.2px;" transform="translate(5,97.5)" y="0" x="0" id="text-entity-consumers-aa4d291c-020e-40e5-b80e-491c201d3d89-attr-4-type" class="er entityLabel">String</text><rect height="21" width="53.93450927734375" y="87" x="36.947052001953125" class="er attributeBoxEven"/><text style="dominant-baseline: middle; font-size: 10.2px;" transform="translate(41.947052001953125,97.5)" y="0" x="0" id="text-entity-consumers-aa4d291c-020e-40e5-b80e-491c201d3d89-attr-4-name" class="er entityLabel">password</text><rect height="21" width="23.79498291015625" y="87" x="90.88156127929688" class="er attributeBoxEven"/><text style="dominant-baseline: middle; font-size: 10.2px;" transform="translate(95.88156127929688,97.5)" y="0" x="0" id="text-entity-consumers-aa4d291c-020e-40e5-b80e-491c201d3d89-attr-4-key" class="er entityLabel"/><rect height="21" width="36.947052001953125" y="108" x="0" class="er attributeBoxOdd"/><text style="dominant-baseline: middle; font-size: 10.2px;" transform="translate(5,118.5)" y="0" x="0" id="text-entity-consumers-aa4d291c-020e-40e5-b80e-491c201d3d89-attr-5-type" class="er entityLabel">String</text><rect height="21" width="53.93450927734375" y="108" x="36.947052001953125" class="er attributeBoxOdd"/><text style="dominant-baseline: middle; font-size: 10.2px;" transform="translate(41.947052001953125,118.5)" y="0" x="0" id="text-entity-consumers-aa4d291c-020e-40e5-b80e-491c201d3d89-attr-5-name" class="er entityLabel">cep</text><rect height="21" width="23.79498291015625" y="108" x="90.88156127929688" class="er attributeBoxOdd"/><text style="dominant-baseline: middle; font-size: 10.2px;" transform="translate(95.88156127929688,118.5)" y="0" x="0" id="text-entity-consumers-aa4d291c-020e-40e5-b80e-491c201d3d89-attr-5-key" class="er entityLabel"/></g><g transform="translate(20,51.5 )" id="entity-purchases-d5f4394c-5d18-4e30-b401-ce449a7d1e7d"><rect height="87" width="113.55233764648438" y="0" x="0" class="er entityBox"/><text style="dominant-baseline: middle; text-anchor: middle; font-size: 12px;" transform="translate(56.77616882324219,12)" y="0" x="0" id="text-entity-purchases-d5f4394c-5d18-4e30-b401-ce449a7d1e7d" class="er entityLabel">purchases</text><rect height="21" width="36.947052001953125" y="24" x="0" class="er attributeBoxOdd"/><text style="dominant-baseline: middle; font-size: 10.2px;" transform="translate(5,34.5)" y="0" x="0" id="text-entity-purchases-d5f4394c-5d18-4e30-b401-ce449a7d1e7d-attr-1-type" class="er entityLabel">String</text><rect height="21" width="52.810302734375" y="24" x="36.947052001953125" class="er attributeBoxOdd"/><text style="dominant-baseline: middle; font-size: 10.2px;" transform="translate(41.947052001953125,34.5)" y="0" x="0" id="text-entity-purchases-d5f4394c-5d18-4e30-b401-ce449a7d1e7d-attr-1-name" class="er entityLabel">id</text><rect height="21" width="23.79498291015625" y="24" x="89.75735473632812" class="er attributeBoxOdd"/><text style="dominant-baseline: middle; font-size: 10.2px;" transform="translate(94.75735473632812,34.5)" y="0" x="0" id="text-entity-purchases-d5f4394c-5d18-4e30-b401-ce449a7d1e7d-attr-1-key" class="er entityLabel">PK</text><rect height="21" width="36.947052001953125" y="45" x="0" class="er attributeBoxEven"/><text style="dominant-baseline: middle; font-size: 10.2px;" transform="translate(5,55.5)" y="0" x="0" id="text-entity-purchases-d5f4394c-5d18-4e30-b401-ce449a7d1e7d-attr-2-type" class="er entityLabel">String</text><rect height="21" width="52.810302734375" y="45" x="36.947052001953125" class="er attributeBoxEven"/><text style="dominant-baseline: middle; font-size: 10.2px;" transform="translate(41.947052001953125,55.5)" y="0" x="0" id="text-entity-purchases-d5f4394c-5d18-4e30-b401-ce449a7d1e7d-attr-2-name" class="er entityLabel">productId</text><rect height="21" width="23.79498291015625" y="45" x="89.75735473632812" class="er attributeBoxEven"/><text style="dominant-baseline: middle; font-size: 10.2px;" transform="translate(94.75735473632812,55.5)" y="0" x="0" id="text-entity-purchases-d5f4394c-5d18-4e30-b401-ce449a7d1e7d-attr-2-key" class="er entityLabel"/><rect height="21" width="36.947052001953125" y="66" x="0" class="er attributeBoxOdd"/><text style="dominant-baseline: middle; font-size: 10.2px;" transform="translate(5,76.5)" y="0" x="0" id="text-entity-purchases-d5f4394c-5d18-4e30-b401-ce449a7d1e7d-attr-3-type" class="er entityLabel">String</text><rect height="21" width="52.810302734375" y="66" x="36.947052001953125" class="er attributeBoxOdd"/><text style="dominant-baseline: middle; font-size: 10.2px;" transform="translate(41.947052001953125,76.5)" y="0" x="0" id="text-entity-purchases-d5f4394c-5d18-4e30-b401-ce449a7d1e7d-attr-3-name" class="er entityLabel">quantity</text><rect height="21" width="23.79498291015625" y="66" x="89.75735473632812" class="er attributeBoxOdd"/><text style="dominant-baseline: middle; font-size: 10.2px;" transform="translate(94.75735473632812,76.5)" y="0" x="0" id="text-entity-purchases-d5f4394c-5d18-4e30-b401-ce449a7d1e7d-attr-3-key" class="er entityLabel"/></g><g transform="translate(233.55233764648438,20 )" id="entity-addresses-fc1c5ab1-04b9-408f-916c-ac8d4254425a"><rect height="150" width="126.40066528320312" y="0" x="0" class="er entityBox"/><text style="dominant-baseline: middle; text-anchor: middle; font-size: 12px;" transform="translate(63.20033264160156,12)" y="0" x="0" id="text-entity-addresses-fc1c5ab1-04b9-408f-916c-ac8d4254425a" class="er entityLabel">addresses</text><rect height="21" width="36.947052001953125" y="24" x="0" class="er attributeBoxOdd"/><text style="dominant-baseline: middle; font-size: 10.2px;" transform="translate(5,34.5)" y="0" x="0" id="text-entity-addresses-fc1c5ab1-04b9-408f-916c-ac8d4254425a-attr-1-type" class="er entityLabel">String</text><rect height="21" width="65.65863037109375" y="24" x="36.947052001953125" class="er attributeBoxOdd"/><text style="dominant-baseline: middle; font-size: 10.2px;" transform="translate(41.947052001953125,34.5)" y="0" x="0" id="text-entity-addresses-fc1c5ab1-04b9-408f-916c-ac8d4254425a-attr-1-name" class="er entityLabel">id</text><rect height="21" width="23.79498291015625" y="24" x="102.60568237304688" class="er attributeBoxOdd"/><text style="dominant-baseline: middle; font-size: 10.2px;" transform="translate(107.60568237304688,34.5)" y="0" x="0" id="text-entity-addresses-fc1c5ab1-04b9-408f-916c-ac8d4254425a-attr-1-key" class="er entityLabel">PK</text><rect height="21" width="36.947052001953125" y="45" x="0" class="er attributeBoxEven"/><text style="dominant-baseline: middle; font-size: 10.2px;" transform="translate(5,55.5)" y="0" x="0" id="text-entity-addresses-fc1c5ab1-04b9-408f-916c-ac8d4254425a-attr-2-type" class="er entityLabel">String</text><rect height="21" width="65.65863037109375" y="45" x="36.947052001953125" class="er attributeBoxEven"/><text style="dominant-baseline: middle; font-size: 10.2px;" transform="translate(41.947052001953125,55.5)" y="0" x="0" id="text-entity-addresses-fc1c5ab1-04b9-408f-916c-ac8d4254425a-attr-2-name" class="er entityLabel">state</text><rect height="21" width="23.79498291015625" y="45" x="102.60568237304688" class="er attributeBoxEven"/><text style="dominant-baseline: middle; font-size: 10.2px;" transform="translate(107.60568237304688,55.5)" y="0" x="0" id="text-entity-addresses-fc1c5ab1-04b9-408f-916c-ac8d4254425a-attr-2-key" class="er entityLabel"/><rect height="21" width="36.947052001953125" y="66" x="0" class="er attributeBoxOdd"/><text style="dominant-baseline: middle; font-size: 10.2px;" transform="translate(5,76.5)" y="0" x="0" id="text-entity-addresses-fc1c5ab1-04b9-408f-916c-ac8d4254425a-attr-3-type" class="er entityLabel">String</text><rect height="21" width="65.65863037109375" y="66" x="36.947052001953125" class="er attributeBoxOdd"/><text style="dominant-baseline: middle; font-size: 10.2px;" transform="translate(41.947052001953125,76.5)" y="0" x="0" id="text-entity-addresses-fc1c5ab1-04b9-408f-916c-ac8d4254425a-attr-3-name" class="er entityLabel">city</text><rect height="21" width="23.79498291015625" y="66" x="102.60568237304688" class="er attributeBoxOdd"/><text style="dominant-baseline: middle; font-size: 10.2px;" transform="translate(107.60568237304688,76.5)" y="0" x="0" id="text-entity-addresses-fc1c5ab1-04b9-408f-916c-ac8d4254425a-attr-3-key" class="er entityLabel"/><rect height="21" width="36.947052001953125" y="87" x="0" class="er attributeBoxEven"/><text style="dominant-baseline: middle; font-size: 10.2px;" transform="translate(5,97.5)" y="0" x="0" id="text-entity-addresses-fc1c5ab1-04b9-408f-916c-ac8d4254425a-attr-4-type" class="er entityLabel">String</text><rect height="21" width="65.65863037109375" y="87" x="36.947052001953125" class="er attributeBoxEven"/><text style="dominant-baseline: middle; font-size: 10.2px;" transform="translate(41.947052001953125,97.5)" y="0" x="0" id="text-entity-addresses-fc1c5ab1-04b9-408f-916c-ac8d4254425a-attr-4-name" class="er entityLabel">street</text><rect height="21" width="23.79498291015625" y="87" x="102.60568237304688" class="er attributeBoxEven"/><text style="dominant-baseline: middle; font-size: 10.2px;" transform="translate(107.60568237304688,97.5)" y="0" x="0" id="text-entity-addresses-fc1c5ab1-04b9-408f-916c-ac8d4254425a-attr-4-key" class="er entityLabel"/><rect height="21" width="36.947052001953125" y="108" x="0" class="er attributeBoxOdd"/><text style="dominant-baseline: middle; font-size: 10.2px;" transform="translate(5,118.5)" y="0" x="0" id="text-entity-addresses-fc1c5ab1-04b9-408f-916c-ac8d4254425a-attr-5-type" class="er entityLabel">Int</text><rect height="21" width="65.65863037109375" y="108" x="36.947052001953125" class="er attributeBoxOdd"/><text style="dominant-baseline: middle; font-size: 10.2px;" transform="translate(41.947052001953125,118.5)" y="0" x="0" id="text-entity-addresses-fc1c5ab1-04b9-408f-916c-ac8d4254425a-attr-5-name" class="er entityLabel">number</text><rect height="21" width="23.79498291015625" y="108" x="102.60568237304688" class="er attributeBoxOdd"/><text style="dominant-baseline: middle; font-size: 10.2px;" transform="translate(107.60568237304688,118.5)" y="0" x="0" id="text-entity-addresses-fc1c5ab1-04b9-408f-916c-ac8d4254425a-attr-5-key" class="er entityLabel"/><rect height="21" width="36.947052001953125" y="129" x="0" class="er attributeBoxEven"/><text style="dominant-baseline: middle; font-size: 10.2px;" transform="translate(5,139.5)" y="0" x="0" id="text-entity-addresses-fc1c5ab1-04b9-408f-916c-ac8d4254425a-attr-6-type" class="er entityLabel">String</text><rect height="21" width="65.65863037109375" y="129" x="36.947052001953125" class="er attributeBoxEven"/><text style="dominant-baseline: middle; font-size: 10.2px;" transform="translate(41.947052001953125,139.5)" y="0" x="0" id="text-entity-addresses-fc1c5ab1-04b9-408f-916c-ac8d4254425a-attr-6-name" class="er entityLabel">complement</text><rect height="21" width="23.79498291015625" y="129" x="102.60568237304688" class="er attributeBoxEven"/><text style="dominant-baseline: middle; font-size: 10.2px;" transform="translate(107.60568237304688,139.5)" y="0" x="0" id="text-entity-addresses-fc1c5ab1-04b9-408f-916c-ac8d4254425a-attr-6-key" class="er entityLabel"/></g><rect height="14" width="52.69140625" y="206.79701232910156" x="58.548248291015625" class="er relationshipLabelBox"/><text style="text-anchor: middle; dominant-baseline: middle; font-size: 12px;" y="213.79701232910156" x="84.89395141601562" id="rel1" class="er relationshipLabel">consumer</text><rect height="14" width="52.69140625" y="221.49974060058594" x="257.2650451660156" class="er relationshipLabelBox"/><text style="text-anchor: middle; dominant-baseline: middle; font-size: 12px;" y="228.49974060058594" x="283.6107482910156" id="rel2" class="er relationshipLabel">consumer</text></svg>